<?xml version="1.0" encoding="UTF-8"?>
<svg id="Layer_1" data-name="Layer 1" xmlns="http://www.w3.org/2000/svg" viewBox="0 0 3149.45 2069.01">
  <defs>
    <style>
      .cls-1 {
        fill: #fff;
      }

      .cls-2 {
        fill: #e5e5e5;
      }

      .cls-3 {
        fill: #bcbcbc;
      }

      .cls-4 {
        fill: #111a28;
      }

      .cls-5 {
        fill: #22a7f0;
      }

      .cls-6 {
        fill: #371a45;
      }

      .cls-7 {
        fill: #197bdd;
      }

      .cls-8 {
        fill: #0d4c92;
      }

      .cls-9 {
        opacity: .2;
      }

      .cls-10 {
        opacity: .3;
      }

      .cls-11 {
        opacity: .25;
      }

      .cls-12 {
        opacity: .4;
      }

      .cls-13 {
        opacity: .35;
      }

      .cls-14 {
        opacity: .5;
      }

      .cls-15 {
        opacity: .7;
      }
    </style>
  </defs>
  <g class="cls-9">
    <ellipse class="cls-6" cx="590.08" cy="1962.58" rx="497.31" ry="106.44"/>
  </g>
  <path class="cls-1" d="M948.29,906.25v465.38c0,62-50.2,112.19-112.2,112.19H345.46c-61.91,0-112.17-50.2-112.17-112.19v-465.38c0-26.08,8.94-50.23,23.99-69.24,.12-.18,.27-.36,.42-.54,11.57-14.52,26.62-26.11,43.94-33.47,13.47-5.72,28.26-8.88,43.82-8.88h490.63c15.65,0,30.55,3.19,44.06,9,11.06,4.68,21.16,11.12,30.05,18.93,.98,.83,1.94,1.7,2.86,2.59,21.7,20.45,35.23,49.45,35.23,81.61Z"/>
  <path class="cls-8" d="M845.16,1495.76H336.44c-63.45,0-115.06-51.62-115.06-115.06v-483.45c0-63.45,51.62-115.06,115.06-115.06h508.71c63.45,0,115.06,51.62,115.06,115.06v483.45c0,63.45-51.62,115.06-115.06,115.06ZM336.44,806.03c-50.3,0-91.22,40.92-91.22,91.22v483.45c0,50.3,40.92,91.22,91.22,91.22h508.71c50.3,0,91.22-40.92,91.22-91.22v-483.45c0-50.3-40.92-91.22-91.22-91.22H336.44Z"/>
  <path class="cls-1" d="M1042.83,1164.9c-135.18,18.27-233.93-87.51-233.93-87.51l-19.7-154.91-17.74-139.56s186.56,165.82,245.32,54.28c9.27-17.59,15.38-42.12,17.05-75.26,.15-2.83,.24-5.75,.33-8.7l1.34,.45,206.18,69.09s25.25,311.88-198.85,342.13Z"/>
  <g class="cls-11">
    <path class="cls-6" d="M1042.83,1164.9c-135.18,18.27-233.93-87.51-233.93-87.51l-19.7-154.91,39.73-9.78s23.25,124.86,145.52,159.95c120.99,34.73,143.08-36.81,120.45-68.91-26.98-38.3-86.83-74.64-78.13-166.53,1.46-15.41,4.83-32.4,10.64-51.21,2.68-8.76,4.8-16.75,6.41-24.05,.63-2.86,1.16-5.6,1.67-8.26l206.18,69.09s25.25,311.88-198.85,342.13Z"/>
  </g>
  <path class="cls-8" d="M1010.93,1178.97c-121.99,.01-206.89-89.32-210.75-93.45-4.49-4.81-4.23-12.36,.58-16.85,4.81-4.5,12.36-4.23,16.85,.58,.94,1,96.37,101.03,223.63,83.84,87.54-11.83,145.87-70.07,173.37-173.11,17.15-64.25,16.47-127,15.59-148.47l-184.89-61.96c-4.27,59.28-23.54,96.72-57.39,111.39-82.48,35.75-218.63-83.98-224.39-89.1-4.92-4.37-5.37-11.91-.99-16.83,4.37-4.92,11.91-5.37,16.83-1,36.07,32.02,142.15,109.72,199.07,85.04,27.53-11.94,42.26-47.65,43.8-106.13l.42-16.11,230.25,77.16,.63,7.84c.27,3.27,6.23,80.96-15.75,163.73-29.73,111.99-96.59,178.1-193.37,191.17-11.43,1.54-22.62,2.26-33.5,2.26Z"/>
  <g>
    <path class="cls-1" d="M119.7,1320.01s-36.86,114.92,84.28,139.61c21.81,4.45,42.7,2.65,61.32-4.18,80.4-29.6,119.26-153.55,13.71-277.56-5.57-6.57-11.56-13.13-17.97-19.7-.27-.27-.54-.54-.81-.81,0,0,5.61-9.29,23.54-22.35,11.25-8.22,27.41-17.93,50.03-27.76l43.43-132.85,.08-.23,54.64-166.98s-43.04,14.59-98.02,39.51c-23.19,10.48-48.57,22.85-73.68,36.74,0,0-11.94,6.41-30.6,18.01-95.57,59.48-367.14,254.83-109.93,418.55Z"/>
    <g class="cls-11">
      <path class="cls-6" d="M346.75,999.17l-12.96,108.09c-58.71,25.48-73.58,50.09-73.58,50.09,.28,.28,.56,.56,.8,.83-15.74-12.99-36.85-27.83-59.02-36.14,0,0,40.87-22.45,54.51-38.49,58.81-69.22,43.67-110.3,98.95-103.25,8.69,1.11-2.96,6.99-8.7,18.87Z"/>
    </g>
    <path class="cls-8" d="M227.29,1473.93c-8.46,0-17.04-.86-25.68-2.62-39.7-8.09-68.03-26.21-84.21-53.84-20.41-34.85-15.19-74.64-11.38-92.13C33.48,1277.14-2.15,1221.73,.1,1160.55c5.59-152.05,244.3-282.15,254.46-287.61,84.48-46.62,172.66-76.71,173.54-77.01,6.23-2.11,13,1.23,15.12,7.46,2.11,6.24-1.23,13.01-7.46,15.12-.86,.29-87.12,29.75-169.79,75.37-2.48,1.33-236.97,129.13-242.03,267.57-1.98,54.13,32.39,104.09,102.16,148.51l7.76,4.94-2.81,8.76c-.14,.43-14.14,45.96,7.02,81.91,12.63,21.46,35.61,35.72,68.31,42.38,44.99,9.16,86.88-10.82,109.32-52.18,27.91-51.44,25.77-138.89-63.98-230.07l-6.51-6.61,4.8-7.93c1.52-2.51,16.31-25.19,67.58-49.61,5.94-2.82,13.06-.31,15.89,5.64,2.83,5.94,.31,13.06-5.64,15.89-28.58,13.61-44.08,26.32-51.57,33.77,91.35,97.71,91.53,192.89,60.38,250.29-22.93,42.25-64.17,66.79-109.36,66.79Z"/>
    <path class="cls-6" d="M128.07,1310.51c4.63,2.64,9.45,5.53,14.16,8.38,4.77,2.81,9.49,5.75,14.26,8.64l28.98,17.52c-5.79-.1-11.52-.8-17.22-1.64-5.68-.91-11.31-2.08-16.88-3.44-5.56-1.39-11.1-2.87-16.52-4.64-5.47-1.73-10.8-3.54-16.2-5.82l9.43-19.01Z"/>
    <g class="cls-11">
      <path class="cls-6" d="M203.97,1459.63c-119.7-24.41-85.12-136.93-84.31-139.61l.04-.04s20.79,111.39,128.99,80.84c69.2-19.58,63.34-117.1,50.13-184.84,1.17-2.67,2.12-5.45,2.89-8.27h.04c95.51,142.09,10.61,274.02-97.78,251.91Z"/>
    </g>
    <path class="cls-8" d="M38.84,1258.94c-6.57,0-11.91-5.32-11.92-11.89-.09-35.3,29.02-71.8,74.16-92.99,50.97-23.91,128.44-30.26,192.99,23.65,5.05,4.22,5.73,11.74,1.51,16.8-4.22,5.05-11.74,5.73-16.79,1.51-55.96-46.74-123.25-41.16-167.58-20.37-36.79,17.26-60.51,45.26-60.45,71.34,.02,6.59-5.31,11.94-11.89,11.95h-.03Z"/>
    <path class="cls-6" d="M257.22,1165.7c-3.89-4.1-8.27-8.32-12.58-12.35-4.35-4.05-8.81-8-13.37-11.86-9.16-7.65-18.71-14.89-29.27-20.89,11.85,2.71,23.47,7.01,34.81,11.84,5.66,2.45,11.27,5.04,16.83,7.78,5.59,2.77,10.99,5.53,16.63,8.74l-13.04,16.74Z"/>
  </g>
  <path class="cls-6" d="M489.17,1861.62c-2.17,0-4.36-.59-6.33-1.83-58.44-36.71-144.27-20.47-145.13-20.3-6.45,1.27-12.72-2.94-13.99-9.4-1.27-6.46,2.93-12.72,9.39-13.99,3.88-.77,95.88-18.3,162.42,23.5,5.58,3.5,7.26,10.86,3.75,16.44-2.26,3.61-6.14,5.58-10.11,5.58Z"/>
  <path class="cls-1" d="M828.93,912.69c33.72,160.61,85.87,378.6,62.9,594.57-14.74,138.5-45.6,320.54-45.6,320.54,0,0,91.79,30.25,85.22,95.42-.16,1.76,3.89,69.87-177.89,63.06-77.06-2.89-129.47-17.64-148.22-58.19-16.8-36.33-14.39-197.9-14.39-197.9v-228.57h-.24v228.57s2.41,161.57-14.39,197.9c-18.75,40.54-62.59,55.3-139.65,58.19-181.78,6.81-186.3-61.3-186.46-63.06-6.57-65.16,85.22-95.42,85.22-95.42,0,0-30.87-182.04-45.6-320.54-23.53-221.15,30.86-445.17,65.33-606.02"/>
  <path class="cls-8" d="M834.76,911.46c24.11,73.53,37.84,149.62,51.41,225.85,12.95,76.32,22.21,153.6,24.32,231.45,.49,19.46,.34,38.94-.09,58.43-.61,19.48-1.6,38.97-3.21,58.42-1.68,19.52-3.86,38.73-6.14,57.92-2.28,19.2-4.71,38.36-7.27,57.5-5.05,38.29-10.91,76.43-16.82,114.56-5.94,38.13-12.19,76.15-18.97,114.2l-8.02-13.32h0c5.42,1.87,9.92,3.76,14.73,5.9,4.71,2.12,9.34,4.4,13.9,6.85,9.1,4.92,17.93,10.53,26.24,17.09,8.29,6.58,16.1,14.15,22.69,23.09,6.55,8.92,11.81,19.38,14.35,30.75,1.27,5.66,1.87,11.5,1.82,17.27-.06,1.43-.06,2.9-.18,4.31l-.17,2.12-.04,.47,.04-.4c0-.22,0-.19,0-.02l-.05,1.31c-.2,3.56-.82,6.78-1.73,9.88-3.66,12.43-11.56,22.16-20.22,29.49-8.77,7.32-18.45,12.61-28.25,16.65-9.82,4.06-19.82,7.07-29.83,9.3-20.04,4.57-40.15,6.56-60.13,7.55-20,.94-39.84,.58-59.69-.35-19.86-1.08-39.84-2.91-59.85-6.97-10-2.01-20-4.66-29.89-8.19-9.87-3.6-19.65-8.15-28.78-14.35-9.13-6.13-17.49-14.13-23.9-23.6-1.61-2.36-3.05-4.83-4.43-7.32l-1.9-3.82c-.62-1.33-1.19-2.83-1.76-4.25-2-5.56-3.32-10.78-4.35-15.88-4.06-20.38-5.52-40.01-6.88-59.78-2.44-39.44-2.97-78.61-2.75-117.89l.06-234.07,11.92,11.92h-.24l11.92-11.92,.06,233.72c.23,39.23-.3,78.34-2.72,117.71-1.33,19.73-2.82,39.34-6.78,59.66-1.03,5.1-2.3,10.29-4.19,15.78l-1.74,4.29c-.6,1.32-1.22,2.51-1.83,3.77-1.28,2.46-2.62,4.91-4.14,7.27-5.94,9.5-13.84,17.95-22.8,24.52-8.97,6.56-18.77,11.5-28.69,15.16-9.93,3.69-20,6.29-30.03,8.24-20.08,3.91-40.05,5.46-59.87,6.33-19.8,.75-39.67,.85-59.63-.33-19.95-1.14-40.01-3.57-59.94-8.39-9.95-2.47-19.87-5.52-29.59-9.64-9.69-4.16-19.27-9.27-28.01-16.29-8.67-7.01-16.71-15.89-21.47-27.61-1.18-2.96-2.13-6-2.71-9.65l-.19-1.46-.09-1.08-.17-2.12c-.1-1.41-.12-2.87-.16-4.3-.02-5.77,.57-11.59,1.87-17.24,2.56-11.34,7.84-21.76,14.39-30.67,6.59-8.92,14.4-16.46,22.68-23.03,8.3-6.55,17.12-12.15,26.21-17.06,4.55-2.45,9.17-4.73,13.88-6.84,4.8-2.13,9.29-4.02,14.71-5.89h0s-8.02,13.31-8.02,13.31c-6.86-38.53-13.19-77.04-19.2-115.66-5.98-38.61-11.89-77.25-17-116.02-2.58-19.39-5.02-38.8-7.32-58.24l-3.31-29.2c-.95-9.8-2.04-19.66-2.73-29.51-3.15-39.41-3.89-78.91-2.95-118.32,2.4-78.82,11.99-157.05,25.33-234.3,6.66-38.64,14.31-77.06,22.39-115.32,3.99-19.14,8.53-38.15,13.49-57.05,5.02-18.89,10.44-37.65,16.95-56.18,1.1-3.13,4.53-4.78,7.66-3.68,2.64,.93,4.22,3.52,4,6.18-1.67,19.61-4.58,38.94-7.8,58.19-3.3,19.23-6.91,38.36-10.87,57.41-7.74,38.13-15.02,76.3-21.29,114.59-12.59,76.55-21.36,153.67-23.12,230.87-.97,38.58-.29,77.17,2.73,115.54,.66,9.61,1.71,19.14,2.63,28.75l3.24,28.94c2.26,19.29,4.66,38.59,7.2,57.87,5.1,38.56,10.29,77.15,15.95,115.68l8.65,57.77,8.88,57.7,1.57,10.16-9.59,3.16h0c-3.8,1.31-8.31,3.15-12.41,5-4.18,1.88-8.3,3.91-12.33,6.08-8.05,4.35-15.74,9.25-22.73,14.77-13.97,10.98-25.17,24.84-28.61,40.29-.88,3.85-1.28,7.78-1.27,11.75,.04,1,.04,1.98,.12,3l.12,1.52,.06,.74,.05,.36c.18,1.16,.64,2.81,1.29,4.37,2.57,6.43,7.81,12.7,14.26,17.84,13.09,10.4,30.51,16.94,48.32,21.35,8.95,2.25,18.21,3.75,27.48,5.12,9.34,1.16,18.73,2.12,28.21,2.63,18.94,1.12,38.09,1.03,57.22,.31,19.09-.83,38.09-2.36,56.28-5.91,18.11-3.55,35.61-9.22,49.14-19.18,6.75-4.96,12.37-11.01,16.78-18.03,1.12-1.74,2.12-3.57,3.09-5.43l1.36-2.8,1-2.48c1.27-3.73,2.37-8.01,3.26-12.46,3.53-17.95,5.09-37.3,6.35-56.42,2.36-38.43,2.9-77.3,2.67-116l-.06-233.92v-11.92s11.92,0,11.92,0h12.17v11.92s-.06,234.27-.06,234.27c-.22,38.76,.32,77.69,2.7,116.17,1.29,19.14,2.84,38.54,6.44,56.46,.88,4.46,2.04,8.72,3.32,12.33,.36,.83,.63,1.63,1.03,2.51l1.36,2.73c.99,1.77,2,3.52,3.15,5.19,4.55,6.69,10.48,12.49,17.54,17.23,14.11,9.58,31.86,15.19,50.02,18.9,18.25,3.72,37.25,5.5,56.34,6.53,19.13,.89,38.36,1.23,57.35,.34,18.97-.93,37.87-2.85,55.89-6.97,9.03-2,17.79-4.67,26-8.07,8.23-3.37,15.82-7.66,22.04-12.86,6.17-5.18,10.84-11.47,12.69-17.89,.48-1.58,.75-3.18,.82-4.5l.02-.52,.06-1.33,.03-.44,.12-1.53c.1-1.02,.08-2,.13-3,.02-3.98-.38-7.91-1.24-11.77-3.41-15.49-14.6-29.38-28.58-40.38-7-5.53-14.7-10.45-22.76-14.8-4.03-2.17-8.16-4.21-12.35-6.09-4.1-1.85-8.62-3.69-12.43-5h0l-9.67-2.62,1.65-10.7,8.77-56.98,8.55-57.05c5.6-38.04,10.72-76.15,15.8-114.22,2.52-19.04,4.91-38.09,7.15-57.14,2.25-19.06,4.37-38.13,5.98-56.99,1.54-18.94,2.49-37.93,3.06-56.95,.41-19.02,.49-38.06,.05-57.11-1.43-76.22-9.9-152.39-22.1-228.01-6.08-37.83-13.16-75.54-20.65-113.22-3.62-18.87-7.23-37.76-10.29-56.78-3.12-19.01-5.94-38.11-7.68-57.45v-.04c-.3-3.3,2.13-6.21,5.43-6.51,2.83-.25,5.39,1.51,6.23,4.11Z"/>
  <path class="cls-8" d="M843.92,1839.49l-9.09-.99c-3.13-.32-6.28-.53-9.43-.79-6.3-.51-12.63-.9-18.95-1.13-12.65-.54-25.3-.4-37.89,.33-12.6,.83-25.01,2.75-37.29,5.47-12.26,2.83-24.03,7.13-35.64,12.37l-.34,.15c-3.01,1.36-6.54,.02-7.9-2.99-1.18-2.61-.32-5.63,1.9-7.26,11.12-8.22,23.41-15.16,36.45-20.07,3.23-1.34,6.56-2.24,9.86-3.38l4.98-1.59c1.67-.46,3.36-.85,5.04-1.27,3.37-.8,6.73-1.74,10.13-2.41l10.23-1.8c13.67-2.12,27.48-3,41.23-2.78,6.88,.18,13.75,.55,20.59,1.32,3.42,.32,6.84,.88,10.26,1.4,3.48,.55,6.73,1.13,10.49,2.03,6.41,1.53,10.36,7.97,8.83,14.37-1.41,5.91-7,9.73-12.89,9.08l-.55-.06Z"/>
  <path class="cls-8" d="M334.46,1816.1c3.76-.89,7.01-1.51,10.48-2.08,3.42-.55,6.84-1.01,10.26-1.4,6.85-.76,13.71-1.21,20.6-1.37,13.76-.34,27.58,.54,41.28,2.53,13.7,2.04,27.25,5.6,40.29,10.48,13.06,4.92,25.33,12.02,36.34,20.4,2.62,2,3.13,5.74,1.13,8.36-1.62,2.13-4.39,2.86-6.78,1.99l-.69-.25c-6.06-2.21-11.52-5.22-17.69-6.84-3.03-.9-5.87-2.16-8.96-2.85-3.07-.73-6.08-1.56-9.1-2.34-12.27-2.63-24.64-4.64-37.22-5.45-12.56-.86-25.2-.99-37.85-.58-6.32,.24-12.65,.55-18.95,1.08-6.23,.39-12.78,1.13-18.53,1.73l-.64,.07c-6.55,.69-12.41-4.07-13.1-10.62-.63-6.04,3.36-11.49,9.12-12.84Z"/>
  <g>
    <g class="cls-11">
      <path class="cls-6" d="M911.12,1340.94c-5.32,3.27-11.31,5.48-17.83,6.29-37.7,4.73-90.84,8.07-130.78-2.82v20.04c0,27.69-21.82,50.35-48.43,50.35H449.43c-26.65,0-48.43-22.66-48.43-50.35v-15.98c-36.7,5.8-79.69,2.79-111.65-1.23-6.91-.88-13.26-3.27-18.8-6.91,.32-27.88,1.33-55.6,2.95-82.99,6.45-3.53,13.75-5.51,21.4-5.51,.71,0,1.43,.03,2.14,.06,29.4,1.46,69.6,2.33,103.97-.75v-35.92c0-27.69,21.79-50.31,48.43-50.31h264.64c21.27,0,39.49,14.46,45.94,34.4,1.62,4.99,2.5,10.34,2.5,15.92v33.62c37.61,5.67,88.02,4.77,123.1,3.05,.71-.03,1.43-.06,2.14-.06,7.29,0,14.2,1.78,20.39,4.96,1.62,27.78,2.69,55.89,2.98,84.16Z"/>
    </g>
    <path class="cls-1" d="M435.83,1295.72c-40.66,17.09-103.58,13.52-146.47,8.13-25.73-3.23-43.79-27.89-40-54.51h0c3.46-24.3,24.05-41.96,47.67-40.81,40.12,1.95,100.3,2.87,138.42-5.91"/>
    <g class="cls-11">
      <path class="cls-6" d="M435.85,1295.71c-40.66,17.09-103.6,13.54-146.49,8.13-25.71-3.21-43.78-27.88-40-54.52,.8-5.66,2.53-10.97,5.06-15.76,6.85,13.17,19.52,22.78,34.94,24.73,42.83,5.38,105.66,8.96,146.31-8.07l.18,45.5Z"/>
    </g>
    <path class="cls-8" d="M354.98,1320.22c-23.59,0-47.03-2.02-67.1-4.54-15.3-1.92-28.97-9.85-38.5-22.33-9.81-12.85-14.12-29.51-11.81-45.69,4.35-30.55,30.17-52.52,60.06-51.04,58.96,2.86,106.97,.87,135.16-5.62,5.85-1.35,20.38-1.58,29.05,25.29,9.71,30.06,7.68,78.22-21.37,90.43h0c-24.04,10.11-54.88,13.51-85.48,13.51Zm-60.12-99.83c-16.83,0-31.16,12.9-33.68,30.62-1.43,10.05,1.11,19.94,7.16,27.86,5.62,7.36,13.62,12.02,22.52,13.14,61.09,7.68,110.93,5.09,140.36-7.29h0c5.47-2.3,9.54-10.28,11.18-21.91,2.82-19.99-2.68-41.8-7.11-47.96-38.82,8.27-96.65,7.62-138.83,5.57-.54-.03-1.07-.04-1.61-.04Z"/>
    <path class="cls-1" d="M746.81,1295.72c40.66,17.09,103.58,13.52,146.47,8.13,25.73-3.23,43.79-27.89,40-54.51h0c-3.46-24.3-24.05-41.96-47.67-40.81-40.12,1.95-100.3,2.87-138.42-5.91"/>
    <g class="cls-11">
      <path class="cls-6" d="M893.29,1303.84c-42.92,5.41-105.83,8.96-146.49-8.13l.18-45.4c40.65,17.03,103.45,13.44,146.31,8.07,15.42-1.95,28.13-11.62,34.97-24.79,2.47,4.76,4.23,10.08,5.03,15.73,3.78,26.64-14.29,51.31-40,54.52Z"/>
    </g>
    <path class="cls-8" d="M827.66,1320.22c-30.6,0-61.43-3.4-85.48-13.51-29.05-12.21-31.08-60.37-21.37-90.43,8.67-26.87,23.21-26.63,29.05-25.29,28.19,6.49,76.2,8.49,135.16,5.62,29.92-1.43,55.71,20.49,60.06,51.04,2.31,16.19-2,32.84-11.81,45.69-9.53,12.48-23.2,20.41-38.5,22.33-20.07,2.52-43.52,4.54-67.1,4.54Zm-80.31-105.36c-4.43,6.16-9.93,27.97-7.11,47.96,1.64,11.63,5.71,19.61,11.18,21.91h0c29.43,12.38,79.29,14.96,140.36,7.29,8.9-1.12,16.9-5.79,22.52-13.14,6.05-7.92,8.59-17.81,7.16-27.86-2.6-18.29-17.83-31.47-35.29-30.59-42.17,2.05-100.01,2.7-138.83-5.57Z"/>
    <path class="cls-1" d="M762.51,1171.83v149.23c0,27.69-21.82,50.35-48.45,50.35H449.45c-26.67,0-48.45-22.66-48.45-50.35v-149.23c0-27.66,21.79-50.32,48.45-50.32h264.61c21.28,0,39.49,14.47,45.95,34.4,1.61,5.01,2.5,10.35,2.5,15.92Z"/>
    <g class="cls-11">
      <path class="cls-6" d="M762.51,1171.83v149.23c0,27.69-21.82,50.35-48.45,50.35H449.45c-26.67,0-48.45-22.66-48.45-50.35v-50.23c45.65,26.24,136.1,65.65,226.88,33.13,44.34-15.9,95.19-70.38,95.19-70.38,0,0,1.96,57.16,10.12,56.26,22.71-2.51,22.54-118.17,26.83-133.94,1.61,5.01,2.5,10.35,2.5,15.92Z"/>
    </g>
    <path class="cls-8" d="M717.11,1383.32H446.38c-31.61,0-57.32-25.71-57.32-57.32v-159.08c0-31.61,25.72-57.32,57.32-57.32h270.73c31.61,0,57.32,25.71,57.32,57.32v159.08c0,31.61-25.72,57.32-57.32,57.32Zm-270.73-249.88c-18.46,0-33.48,15.02-33.48,33.48v159.08c0,18.46,15.02,33.48,33.48,33.48h270.73c18.46,0,33.48-15.02,33.48-33.48v-159.08c0-18.46-15.02-33.48-33.48-33.48H446.38Z"/>
    <ellipse class="cls-5" cx="675.49" cy="1246.45" rx="41.79" ry="43.4"/>
    <path class="cls-1" d="M717.29,1246.47c0,2.96-.27,5.83-.82,8.61-3.86-19.87-20.75-34.83-40.98-34.83s-37.12,14.95-40.96,34.83c-.55-2.79-.82-5.66-.82-8.61,0-23.97,18.7-43.41,41.78-43.41s41.8,19.45,41.8,43.41Z"/>
    <path class="cls-7" d="M717.28,1246.45c0,23.99-18.72,43.4-41.79,43.4s-41.79-19.41-41.79-43.4c0-4.02,.54-7.94,1.52-11.62,4.91,18.3,21.1,31.74,40.27,31.74s35.36-13.45,40.27-31.74c.98,3.68,1.52,7.6,1.52,11.62Z"/>
    <path class="cls-8" d="M675.49,1298.79c-27.97,0-50.73-23.48-50.73-52.34s22.76-52.34,50.73-52.34,50.73,23.48,50.73,52.34-22.76,52.34-50.73,52.34Zm0-86.79c-18.11,0-32.84,15.46-32.84,34.45s14.73,34.45,32.84,34.45,32.85-15.45,32.85-34.45-14.73-34.45-32.85-34.45Z"/>
    <path class="cls-8" d="M557.07,1383.32c-6.59,0-11.92-5.34-11.92-11.92v-76.38c0-15.16-6.92-29.63-18.52-38.69l-6.72-5.26c-17.33-13.55-27.68-35.04-27.68-57.48v-72.07c0-6.59,5.34-11.92,11.92-11.92s11.92,5.34,11.92,11.92v72.07c0,15.16,6.92,29.63,18.52,38.69l6.72,5.26c17.33,13.55,27.68,35.04,27.68,57.48v76.38c0,6.59-5.34,11.92-11.92,11.92Z"/>
  </g>
  <path class="cls-8" d="M444.66,1634.57c-47.56,0-100.73-8.57-150.71-35.38-5.8-3.11-7.98-10.34-4.87-16.14,3.12-5.8,10.34-7.98,16.14-4.87,125.68,67.42,279.8,8.02,281.34,7.41,6.12-2.41,13.05,.59,15.47,6.71,2.42,6.12-.58,13.04-6.7,15.47-4.23,1.68-69.22,26.81-150.67,26.81Z"/>
  <path class="cls-8" d="M737.01,1634.57c-81.43,0-146.36-25.14-150.59-26.81-6.12-2.43-9.12-9.35-6.7-15.47,2.43-6.12,9.35-9.11,15.47-6.7h0c1.54,.61,155.54,60.01,281.22-7.41,5.8-3.12,13.03-.93,16.14,4.87,3.11,5.8,.93,13.03-4.87,16.14-49.97,26.81-103.14,35.38-150.68,35.38Z"/>
  <path class="cls-1" d="M474.36,1495.83s47.23,21.11,116.45,21.11,116.69-21.11,116.69-21.11c0,0-31.37-24.77-116.69-24.77s-116.45,24.77-116.45,24.77Z"/>
  <path class="cls-6" d="M459.33,1488.56c10.56,3.03,21.8,5.76,32.85,7.96,11.09,2.29,22.25,4.15,33.44,5.69,11.22,1.33,22.39,2.8,33.66,3.37,5.62,.41,11.24,.64,16.86,.91,5.62,.23,11.25,.17,16.87,.26,11.25-.12,22.51-.32,33.73-1.27,11.26-.53,22.43-2.07,33.65-3.39l8.39-1.2,8.36-1.38c5.58-.91,11.16-1.92,16.69-3.1,11.06-2.15,22.3-4.89,32.89-7.85l.34-.1c3.18-.89,6.48,.97,7.37,4.15,.76,2.72-.5,5.53-2.87,6.84-10.82,5.98-21.75,10.21-33.05,14.17-11.29,3.76-22.77,7.01-34.44,9.44-5.82,1.25-11.68,2.4-17.58,3.25-5.89,.91-11.8,1.74-17.73,2.35-11.87,1.24-23.81,1.71-35.75,1.89-23.88-.18-47.75-2.52-71.05-7.54-11.67-2.42-23.14-5.68-34.44-9.44-11.3-3.94-22.23-8.18-33.06-14.13-2.89-1.59-3.95-5.22-2.36-8.11,1.37-2.49,4.26-3.62,6.88-2.87l.34,.1Z"/>
  <g class="cls-11">
    <path class="cls-6" d="M880.15,803.12c-59.85,75.8-166.98,137.8-289.22,137.8s-229.46-62.06-289.28-137.92c13.47-5.72,28.26-8.88,43.82-8.88h490.63c15.65,0,30.55,3.19,44.06,9Z"/>
  </g>
  <g class="cls-10">
    <path class="cls-6" d="M931.41,1923.23c-.17,1.75-4.68,69.86-186.46,63.05-77.06-2.9-120.88-17.65-139.65-58.2-6.57-14.24-10.22-44.74-12.2-76.57l-1.69-122.08-2.9,122.08c-1.98,31.83-5.63,62.34-12.2,76.57-18.77,40.55-62.59,55.31-139.65,58.2-181.79,6.8-186.29-61.3-186.46-63.05-.95-9.44,.17-18.17,2.76-26.15,6.57,10.82,26.2,26.4,83.83,34.33,93.53,12.83,193.98,1.41,211.03-60.79,12.83-46.81,33.95-298.36-37.14-328.72-109.92-46.98-150.27-84.75-119.71-90.84,15.53-3.1,56.46,9.79,199.84,9.79s184.31-12.89,199.84-9.79c30.57,6.08-9.79,43.85-119.71,90.84-71.09,30.36-49.97,281.91-37.14,328.72,17.05,62.19,117.5,73.62,211.03,60.79,57.63-7.92,77.26-23.51,83.83-34.33,2.58,7.98,3.7,16.7,2.76,26.15Z"/>
  </g>
  <g>
    <path class="cls-1" d="M1015.77,590.68h0c-4.94-.02-8.93-4.04-8.91-8.98l1.03-257.75c.02-4.94,4.04-8.93,8.98-8.91h0c51.85,.21,93.71,42.4,93.5,94.25l-.35,87.89c-.21,51.85-42.4,93.71-94.25,93.5Z"/>
    <path class="cls-6" d="M1016.15,592.82h-.39c-6.12-.03-11.07-5.02-11.04-11.14l1.03-257.74c.02-6.1,4.99-11.05,11.09-11.05h.04c25.65,.1,49.72,10.19,67.78,28.39,18.06,18.21,27.95,42.36,27.85,68.01l-.35,87.89c-.21,52.82-43.25,95.64-96.01,95.64Zm-.37-4.28c.12,0,.25,0,.37,0,50.42,0,91.53-40.91,91.73-91.37l.35-87.89c.1-24.5-9.35-47.58-26.61-64.97-17.26-17.4-40.25-27.03-64.76-27.13h-.03c-3.74,0-6.79,3.03-6.81,6.78l-1.03,257.75c-.02,3.75,3.03,6.82,6.78,6.83h0Z"/>
  </g>
  <g class="cls-13">
    <path class="cls-6" d="M1110.18,455.96l-.16,41.22c-.21,51.83-42.41,93.7-94.26,93.51-4.94-.01-8.93-4.06-8.91-9l.25-68.52c1.37,3.13,4.49,5.3,8.12,5.34h6.11c40.97,.18,75.94-25.95,88.85-62.55Z"/>
  </g>
  <path class="cls-8" d="M1016.15,602.6c-.14,0-.28,0-.43,0h0c-5.57-.02-10.81-2.21-14.73-6.17-3.93-3.96-6.08-9.21-6.05-14.78l1.03-257.74c.04-11.48,9.4-20.79,20.87-20.79h.08c28.26,.11,54.79,11.22,74.69,31.29,19.9,20.06,30.8,46.67,30.69,74.93l-.35,87.89c-.23,58.19-47.65,105.38-105.79,105.38Zm3.64-275.58l-1,251.69c43.83-1.39,79.13-37.39,79.3-81.58l.35-87.89c.18-44.19-34.84-80.47-78.65-82.21Z"/>
  <g>
    <path class="cls-1" d="M166.11,311.65h0c4.94,.02,8.93,4.04,8.91,8.98l-1.03,257.75c-.02,4.94-4.04,8.93-8.98,8.91h0c-51.85-.21-93.71-42.4-93.5-94.25l.35-87.89c.21-51.85,42.4-93.71,94.25-93.5Z"/>
    <path class="cls-6" d="M165.05,589.43h-.04c-25.65-.1-49.72-10.19-67.78-28.39-18.06-18.21-27.95-42.36-27.85-68.01l.35-87.89c.21-52.81,43.25-95.63,96.01-95.63h.39c2.96,.01,5.74,1.18,7.83,3.28,2.09,2.1,3.23,4.89,3.22,7.86l-1.02,257.74c-.03,6.1-5,11.05-11.09,11.05Zm.68-275.64c-50.41,0-91.52,40.91-91.73,91.37l-.35,87.89c-.1,24.5,9.35,47.58,26.61,64.97,17.26,17.4,40.26,27.03,64.76,27.13h.03c3.74,0,6.79-3.03,6.81-6.78l1.02-257.74c0-1.82-.69-3.53-1.97-4.82-1.28-1.29-2.99-2.01-4.8-2.01h0c-.12,0-.25,0-.37,0Z"/>
  </g>
  <g class="cls-13">
    <path class="cls-6" d="M174.3,506.87l-.29,71.5c-.01,4.94-4.06,8.93-9,8.91-27.21-.12-51.7-11.79-68.78-30.38-15.42-16.79-24.8-39.24-24.71-63.85l.15-37.04c14.59,32.55,47.29,55.32,85.3,55.48l9.41,.04c3.43,0,6.36-1.88,7.93-4.66Z"/>
  </g>
  <path class="cls-8" d="M165.05,599.21h-.08c-28.26-.11-54.79-11.22-74.69-31.28-19.9-20.06-30.8-46.67-30.69-74.93l.35-87.89c.23-58.19,47.65-105.38,105.79-105.38,.14,0,.28,0,.43,0,5.57,.02,10.81,2.21,14.73,6.17,3.93,3.96,6.08,9.21,6.05,14.78l-1.02,257.74c-.05,11.48-9.4,20.79-20.87,20.79Zm-1.96-275.6c-43.82,1.4-79.13,37.39-79.3,81.58l-.35,87.89c-.09,21.89,8.36,42.5,23.77,58.04,14.72,14.84,34.11,23.35,54.88,24.17l1-251.69Z"/>
  <g>
    <circle class="cls-1" cx="590.99" cy="451.16" r="439.22"/>
    <path class="cls-6" d="M591.68,892.56c-11.21,0-22.45-.42-33.75-1.27-242.69-18.23-425.3-230.5-407.07-473.18C169.09,175.42,381.37-7.16,624.05,11.04c242.69,18.23,425.3,230.5,407.07,473.18l-2.14-.16,2.14,.16c-8.83,117.56-62.91,224.65-152.29,301.53-80.79,69.5-181.68,106.8-287.15,106.8Zm-1-878.49c-226.28,0-418.32,175.1-435.54,404.36-18.05,240.33,162.79,450.54,403.12,468.59,116.41,8.74,229.28-28.37,317.78-104.51,88.5-76.14,142.06-182.19,150.81-298.61,18.05-240.33-162.79-450.54-403.12-468.59-11.07-.83-22.12-1.24-33.05-1.24Z"/>
  </g>
  <g class="cls-13">
    <path class="cls-6" d="M1029.34,423.12c1.3,20.01,1.19,40.36-.35,60.95-18.2,241.89-229.01,423.25-470.9,405.1-241.89-18.2-423.25-229.01-405.1-470.9,.52-6.96,1.2-13.91,2.05-20.74,13.51,215.43,184.13,393.32,405.45,409.95,234.93,17.63,440.51-152.93,468.85-384.36Z"/>
  </g>
  <path class="cls-8" d="M591.31,902.32c-11.3,0-22.67-.42-34.11-1.28-248.06-18.63-434.72-235.61-416.09-483.67C159.74,169.31,376.73-17.36,624.78,1.28c248.06,18.63,434.72,235.61,416.09,483.67l-11.89-.89,11.89,.89c-17.77,236.62-216.02,417.37-449.56,417.37Zm-.63-878.47c-221.22,0-408.96,171.19-425.8,395.31-17.65,234.95,159.14,440.46,394.09,458.1,113.8,8.54,224.15-27.74,310.67-102.17s138.88-178.11,147.43-291.92c17.65-234.95-159.14-440.46-394.09-458.1-10.83-.81-21.62-1.21-32.31-1.21Z"/>
  <path class="cls-8" d="M1026.74,495.2c-5.14,85.8-37.77,163.78-89.35,226.83-38.67,47.27-190.64,124.94-372,115.71-168.16-8.56-315.71-107.34-348.45-158.89-43.68-68.76-66.76-150.08-61.61-235.88,13.61-227.04,214.31-309.47,454.96-295.05,240.65,14.42,430.07,120.24,416.46,347.28Z"/>
  <path class="cls-8" d="M596.02,850.44c-10.29,0-20.7-.26-31.24-.8-174.41-8.88-323.47-110.18-357.91-164.4-46.64-73.42-68.58-157.44-63.45-242.98,6.69-111.56,56.58-194.89,148.29-247.69,79.95-46.03,190.34-66.27,319.28-58.54,128.93,7.73,236.13,41.01,310,96.26,84.75,63.38,124.33,152.07,117.65,263.63-5.13,85.55-36.95,166.35-92.02,233.66-36.11,44.14-173.21,120.86-350.6,120.86Zm-37.79-692.18c-102.12,0-189.41,19.43-254.62,56.98-84.32,48.55-130.21,125.41-136.39,228.45-4.83,80.51,15.84,159.61,59.78,228.77,31.19,49.09,175.1,145.03,339,153.37,181.66,9.23,327.73-69.26,362.17-111.35,51.88-63.41,81.85-139.48,86.67-219.99l11.9,.71-11.9-.71c16.73-279.12-277.84-327.02-405.27-334.66-17.48-1.05-34.61-1.57-51.33-1.57Z"/>
  <g class="cls-14">
    <ellipse class="cls-1" cx="886.98" cy="455.87" rx="77.73" ry="56.32" transform="translate(233.99 1209.64) rotate(-76.3)"/>
  </g>
  <g class="cls-14">
    <ellipse class="cls-1" cx="808.89" cy="605.44" rx="35.68" ry="30.62" transform="translate(-52.2 1134.01) rotate(-68.36)"/>
  </g>
  <g class="cls-15">
    <path class="cls-4" d="M954.69,278.32c50.22,54.02,77.5,125.69,72.04,216.87-5.14,85.81-37.78,163.79-89.33,226.84-38.68,47.27-190.67,124.93-372.03,115.72-64.04-3.24-125.06-19.59-177.93-41.45,223.17,6.58,408.35-88.83,456.3-147.46,65.47-80.02,106.87-179.01,113.38-287.88,1.76-29.1,.84-56.63-2.45-82.65Z"/>
  </g>
  <path class="cls-8" d="M1001.15,305.77c-2.92,0-5.85-1.07-8.14-3.24l-1.11-1.05-.87-1.34c-67.52-107.78-206.46-175.6-381.19-186.08-175.68-10.51-321.71,42.14-400.61,144.51l-1.01,1.15c-4.52,4.79-11.97,4.91-16.76,.39-4.61-4.36-4.9-11.61-.86-16.42,83.85-108.51,237.15-164.43,420.67-153.43,182.4,10.94,328.1,82.73,399.82,196.99,2.99,4.52,2.62,10.67-1.26,14.78-2.35,2.49-5.51,3.75-8.68,3.75Z"/>
  <g class="cls-14">
    <path class="cls-1" d="M245.07,583.91s-56.89-228.19,69.16-310.21c126.06-82.02,299.7-71.25,294.97-60.36,0,0-195.05,35.02-279.38,182.5-65.03,113.73-84.75,188.06-84.75,188.06Z"/>
  </g>
  <path class="cls-2" d="M1293.13,909.96l-186.43,53.38c-17.41,4.98-35.56-5.09-40.55-22.5l-95.67-334.18c-4.98-17.41,5.09-35.56,22.5-40.55l186.43-53.38c17.41-4.98,35.56,5.09,40.55,22.5l95.67,334.18c4.98,17.41-5.09,35.56-22.5,40.55Z"/>
  <path class="cls-3" d="M1293.12,909.95l-186.42,53.39c-17.41,4.98-35.56-5.1-40.54-22.5l-95.68-334.17c-3.52-12.34,.51-25.07,9.33-33.15,.03,.18,.06,.36,.12,.54l95.68,334.17c4.98,17.41,23.13,27.48,40.54,22.5l186.45-53.39c5.1-1.46,9.54-4.02,13.18-7.39,4.62,17.23-5.43,35.08-22.65,40Z"/>
  <path class="cls-6" d="M1097.61,976.55c-7.49,0-14.9-1.9-21.63-5.63-10.44-5.79-18.01-15.31-21.29-26.79l-95.67-334.18c-3.29-11.48-1.91-23.56,3.89-34,5.79-10.44,15.31-18.01,26.79-21.29l186.43-53.38c11.48-3.28,23.55-1.91,34,3.89,10.44,5.79,18,15.31,21.29,26.79l95.68,334.18c6.78,23.7-6.98,48.51-30.68,55.29l-186.43,53.37c-4.08,1.17-8.24,1.75-12.37,1.75Zm90.85-453.16c-1.93,0-3.87,.27-5.77,.82l-186.43,53.38c-5.36,1.53-9.8,5.06-12.5,9.94-2.7,4.87-3.35,10.51-1.81,15.87l95.67,334.18c1.53,5.36,5.06,9.8,9.94,12.5,4.87,2.7,10.5,3.35,15.87,1.81l186.43-53.37,3.28,11.46-3.28-11.46c11.06-3.17,17.48-14.74,14.32-25.8l-95.68-334.18c-1.53-5.36-5.06-9.8-9.94-12.5-3.14-1.74-6.6-2.63-10.09-2.63Z"/>
  <path class="cls-8" d="M1097.61,976.55c-7.49,0-14.9-1.9-21.63-5.63-10.44-5.79-18.01-15.31-21.29-26.79l-95.67-334.18c-3.29-11.48-1.91-23.56,3.89-34,5.79-10.44,15.31-18.01,26.79-21.29l186.43-53.38c11.48-3.28,23.55-1.91,34,3.89,10.44,5.79,18,15.31,21.29,26.79l95.68,334.18c6.78,23.7-6.98,48.51-30.68,55.29l-186.43,53.37c-4.08,1.17-8.24,1.75-12.37,1.75Zm90.85-453.16c-1.93,0-3.87,.27-5.77,.82l-186.43,53.38c-5.36,1.53-9.8,5.06-12.5,9.94-2.7,4.87-3.35,10.51-1.81,15.87l95.67,334.18c1.53,5.36,5.06,9.8,9.94,12.5,4.87,2.7,10.5,3.35,15.87,1.81l186.43-53.37,3.28,11.46-3.28-11.46c11.06-3.17,17.48-14.74,14.32-25.8l-95.68-334.18c-1.53-5.36-5.06-9.8-9.94-12.5-3.14-1.74-6.6-2.63-10.09-2.63Z"/>
  <path class="cls-8" d="M1258.1,852.6l-101.46,29.03-50.58,14.49c-.92,.27-1.85,.42-2.74,.51-7.01,.66-13.68-3.73-15.68-10.73l-13.44-46.92-31.83-111.21-32.55-113.77c-2.27-7.9,2.3-16.16,10.22-18.42l84.38-24.14,67.66-19.37c5.34-1.52,10.82,.06,14.52,3.7,1.79,1.73,3.16,3.93,3.9,6.53l19.05,66.56,19.88,69.39,38.9,135.95c2.27,7.9-2.3,16.16-10.22,18.42Z"/>
  <g class="cls-12">
    <path class="cls-1" d="M1186.59,555.75l-112.4,283.23-31.83-111.21,62.06-156.34,67.66-19.37c5.34-1.52,10.82,.06,14.52,3.7Z"/>
  </g>
  <g class="cls-12">
    <path class="cls-1" d="M1229.42,698.23l-72.79,183.41-50.58,14.49c-.92,.27-1.85,.42-2.74,.51l106.23-267.79,19.88,69.39Z"/>
  </g>
  <path class="cls-8" d="M1101.92,905.11c-3.9,0-7.76-.99-11.27-2.94-5.44-3.02-9.38-7.98-11.1-13.96l-77.84-271.9c-3.54-12.35,3.63-25.28,15.99-28.81l152.05-43.53c12.36-3.54,25.28,3.64,28.81,15.99l77.84,271.9c3.53,12.35-3.64,25.28-15.99,28.81l-152.05,43.53c-2.13,.61-4.29,.91-6.45,.91Zm74.24-345.25c-.59,0-1.19,.08-1.79,.25l-152.05,43.53c-3.45,.99-5.45,4.6-4.46,8.05l77.84,271.9c.48,1.67,1.58,3.06,3.1,3.9,1.52,.84,3.28,1.05,4.95,.57l152.05-43.53c3.45-.99,5.45-4.6,4.46-8.05l-77.84-271.9c-.82-2.85-3.43-4.72-6.26-4.72Z"/>
  <path class="cls-1" d="M1010.99,748.16s70.24,9.06,70.24,56.75c0,32.32-30.33,39.59-61.19,33.59-36.18-7.03-58.91-70.77-9.05-90.35Z"/>
  <g class="cls-11">
    <path class="cls-6" d="M1081.22,804.91c0,32.31-30.31,39.58-61.19,33.59-25.6-4.98-44.44-38.3-35.65-64.32,5.19,17.44,18.99,32.67,35.65,35.92,25.78,5.01,51.18,.75,58.84-19.58,1.49,4.35,2.35,9.15,2.35,14.4Z"/>
  </g>
  <path class="cls-8" d="M1038.91,852.36c-6.65,0-13.73-.71-21.15-2.15-24.41-4.74-44.72-29.17-47.25-56.82-2.33-25.48,11.17-46.53,36.12-56.33l2.85-1.12,3.03,.39c3.29,.42,80.64,11.06,80.64,68.58,0,18.83-8.42,29.72-15.48,35.54-9.54,7.86-22.92,11.91-38.76,11.91Zm-26.43-91.88c-16.57,7.75-19.12,20.85-18.22,30.73,1.55,16.92,14.13,32.88,28.05,35.58,17.45,3.39,32.47,1.62,40.19-4.75,4.58-3.77,6.8-9.38,6.8-17.14,0-31.76-44.65-42.18-56.83-44.43Z"/>
  <g>
    <path class="cls-1" d="M1286.5,741.16s-68.07,32.15-53.69,78.12c10.26,32.79,54,32.79,74.78,11.4,22.32-22.98,32.26-67.15-21.09-89.52Z"/>
    <g class="cls-11">
      <path class="cls-6" d="M1307.58,830.7c-20.78,21.37-64.5,21.37-74.76-11.42-2.77-8.82-2.47-17.14-.24-24.8,14.67,23.85,52.1,21.97,70.82,2.68,7.63-7.87,13.83-18.21,16.48-29.33,12.37,21.73,2.89,47.21-12.31,62.86Z"/>
    </g>
    <path class="cls-8" d="M1270.98,857.45c-4.66,0-9.29-.52-13.79-1.59-17.47-4.16-30.5-16.19-35.77-33.01-17.28-55.24,56.81-90.97,59.98-92.46l4.8-2.27,4.9,2.05c32.05,13.43,42.31,33.52,45.26,48.01,4.98,24.36-7.19,47.39-20.23,60.81-11.41,11.75-28.41,18.46-45.16,18.46Zm15.91-103.03c-13.69,7.62-51.9,31.9-42.7,61.31,3.5,11.18,12.01,15.38,18.53,16.93,12.59,3.01,27.52-1.23,36.32-10.29,11.06-11.38,16.54-26.86,13.97-39.42-2.38-11.64-11.16-21.22-26.12-28.53Z"/>
  </g>
  <g>
    <path class="cls-1" d="M1265.63,669.63s-68.07,32.15-53.69,78.12c10.26,32.79,54,32.79,74.78,11.4,22.32-22.98,32.26-67.15-21.09-89.52Z"/>
    <g class="cls-11">
      <path class="cls-6" d="M1286.71,759.16c-20.78,21.37-64.5,21.37-74.76-11.42-2.77-8.82-2.47-17.14-.24-24.8,14.67,23.85,52.1,21.97,70.82,2.68,7.63-7.87,13.83-18.21,16.48-29.33,12.37,21.73,2.89,47.21-12.31,62.86Z"/>
    </g>
    <path class="cls-8" d="M1250.11,785.91c-4.66,0-9.29-.52-13.79-1.59-17.47-4.16-30.5-16.19-35.77-33.01-17.28-55.24,56.81-90.97,59.98-92.46l4.8-2.27,4.9,2.05c32.05,13.43,42.31,33.52,45.27,48.01,4.98,24.36-7.19,47.38-20.23,60.81-11.41,11.75-28.41,18.46-45.16,18.46Zm15.91-103.03c-13.69,7.62-51.9,31.9-42.7,61.3,3.5,11.18,12.01,15.38,18.53,16.94,12.59,3,27.52-1.23,36.32-10.29,11.06-11.38,16.54-26.86,13.97-39.42-2.38-11.64-11.16-21.22-26.12-28.53Z"/>
  </g>
  <g>
    <path class="cls-1" d="M1238.8,601.07s-68.07,32.15-53.69,78.12c10.26,32.79,54,32.79,74.78,11.4,22.32-22.98,32.26-67.15-21.09-89.52Z"/>
    <g class="cls-11">
      <path class="cls-6" d="M1259.89,690.6c-20.78,21.37-64.5,21.37-74.76-11.42-2.77-8.82-2.47-17.14-.24-24.8,14.67,23.85,52.1,21.97,70.82,2.68,7.63-7.87,13.83-18.21,16.48-29.33,12.37,21.73,2.89,47.21-12.31,62.86Z"/>
    </g>
    <path class="cls-8" d="M1223.29,717.35c-4.66,0-9.29-.52-13.78-1.59-17.47-4.16-30.51-16.19-35.77-33.01-17.28-55.24,56.81-90.97,59.98-92.46l4.8-2.27,4.9,2.05c32.05,13.43,42.31,33.52,45.27,48.01,4.98,24.36-7.19,47.38-20.23,60.81-11.41,11.75-28.41,18.46-45.16,18.46Zm15.91-103.03c-13.69,7.62-51.9,31.9-42.7,61.3,3.5,11.18,12.01,15.38,18.53,16.94,12.59,2.99,27.52-1.23,36.32-10.29,11.06-11.38,16.54-26.86,13.97-39.42-2.38-11.64-11.16-21.22-26.12-28.53Z"/>
  </g>
  <path class="cls-8" d="M1099.6,1160.18c-48.54,0-85.64-16.26-110.31-48.35-63.05-82.03-20.44-238.05-18.59-244.65,1.77-6.34,8.35-10.04,14.69-8.27,6.34,1.77,10.05,8.35,8.28,14.69-.42,1.5-41.26,151.19,14.55,223.73,20.31,26.4,51.9,39.55,93.83,38.99,6.55-.01,11.99,5.19,12.07,11.77,.08,6.59-5.19,11.99-11.77,12.07-.92,.01-1.84,.02-2.75,.02Z"/>
  <rect class="cls-6" x="1175.16" y="893.28" width="40.72" height="19.16" rx="9.58" ry="9.58" transform="translate(-199.93 357.75) rotate(-15.72)"/>
  <g>
    <path class="cls-8" d="M1186.02,1405.43c13.1-22.96,30.99-40.85,53.68-53.68,22.68-12.82,48.11-19.23,76.29-19.23,32.97,0,61.85,8.45,86.65,25.36,24.79,16.91,42.12,40.3,51.99,70.16h-68.05c-6.76-14.09-16.27-24.65-28.53-31.7-12.26-7.04-26.42-10.57-42.48-10.57-17.19,0-32.48,4.02-45.86,12.05-13.39,8.03-23.81,19.38-31.28,34.02-7.47,14.65-11.2,31.84-11.2,51.56s3.73,36.56,11.2,51.35c7.46,14.79,17.89,26.2,31.28,34.23,13.38,8.03,28.67,12.05,45.86,12.05,16.06,0,30.22-3.59,42.48-10.78,12.26-7.18,21.77-17.82,28.53-31.91h68.05c-9.87,30.15-27.12,53.61-51.78,70.37-24.66,16.77-53.61,25.15-86.86,25.15-28.18,0-53.61-6.41-76.29-19.23-22.68-12.82-40.58-30.64-53.68-53.47-13.1-22.82-19.65-48.74-19.65-77.77s6.55-55.01,19.65-77.98Z"/>
    <path class="cls-8" d="M1548.44,1620.14c-18.04-10-32.19-24.16-42.48-42.48-10.29-18.31-15.43-39.45-15.43-63.4s5.28-45.08,15.85-63.4c10.57-18.31,25-32.47,43.32-42.48,18.31-10,38.74-15,61.29-15s42.97,5.01,61.29,15c18.31,10.01,32.76,24.16,43.32,42.48,10.57,18.32,15.85,39.45,15.85,63.4s-5.43,45.09-16.27,63.4c-10.85,18.32-25.51,32.48-43.96,42.48-18.46,10-39.1,15-61.92,15s-42.83-5-60.86-15Zm91.08-44.38c9.44-5.21,16.97-13.03,22.61-23.46,5.63-10.42,8.45-23.1,8.45-38.04,0-22.26-5.85-39.37-17.54-51.35-11.7-11.97-25.99-17.96-42.9-17.96s-31.06,5.99-42.48,17.96c-11.41,11.98-17.12,29.1-17.12,51.35s5.56,39.38,16.7,51.35c11.13,11.98,25.15,17.96,42.05,17.96,10.71,0,20.78-2.6,30.22-7.82Z"/>
    <path class="cls-8" d="M1972.36,1420.22c17.18,17.61,25.78,42.2,25.78,73.75v137.36h-59.17v-129.33c0-18.6-4.65-32.89-13.95-42.9-9.3-10-21.98-15-38.04-15s-29.24,5.01-38.67,15c-9.44,10-14.16,24.3-14.16,42.9v129.33h-59.17v-234.15h59.17v29.16c7.89-10.14,17.96-18.1,30.22-23.88,12.26-5.77,25.71-8.66,40.36-8.66,27.9,0,50.44,8.81,67.63,26.42Z"/>
    <path class="cls-8" d="M2123.25,1445.79v113.27c0,7.89,1.9,13.6,5.71,17.12,3.8,3.53,10.21,5.28,19.23,5.28h27.47v49.87h-37.19c-49.87,0-74.81-24.23-74.81-72.7v-112.85h-27.9v-48.61h27.9v-57.9h59.6v57.9h52.41v48.61h-52.41Z"/>
    <path class="cls-8" d="M2217.29,1450.44c9.44-18.31,22.26-32.4,38.46-42.27,16.2-9.86,34.3-14.79,54.31-14.79,17.47,0,32.76,3.53,45.86,10.57,13.1,7.05,23.6,15.92,31.49,26.63v-33.39h59.6v234.15h-59.6v-34.24c-7.61,10.99-18.11,20.08-31.49,27.26-13.39,7.18-28.81,10.78-46.28,10.78-19.73,0-37.69-5.07-53.89-15.22-16.21-10.14-29.03-24.44-38.46-42.9-9.44-18.45-14.16-39.66-14.16-63.61s4.72-44.66,14.16-62.98Zm161.67,26.84c-5.64-10.28-13.25-18.17-22.82-23.67-9.58-5.49-19.87-8.24-30.85-8.24s-21.13,2.68-30.43,8.03c-9.3,5.36-16.84,13.18-22.61,23.46-5.78,10.29-8.66,22.47-8.66,36.56s2.89,26.42,8.66,36.98c5.77,10.57,13.38,18.67,22.82,24.3,9.44,5.64,19.51,8.45,30.22,8.45s21.27-2.75,30.85-8.24c9.58-5.49,17.18-13.38,22.82-23.67,5.63-10.28,8.45-22.61,8.45-36.98s-2.82-26.69-8.45-36.98Z"/>
    <path class="cls-8" d="M2504.48,1450.65c9.86-18.17,23.52-32.26,41-42.27,17.47-10,37.47-15,60.02-15,29.02,0,53.04,7.26,72.06,21.77,19.02,14.52,31.77,34.87,38.25,61.07h-63.82c-3.38-10.14-9.09-18.1-17.12-23.88-8.03-5.77-17.96-8.66-29.8-8.66-16.91,0-30.29,6.13-40.15,18.39-9.87,12.26-14.79,29.66-14.79,52.2s4.93,39.52,14.79,51.78c9.86,12.26,23.25,18.39,40.15,18.39,23.95,0,39.58-10.71,46.91-32.12h63.82c-6.48,25.36-19.3,45.51-38.46,60.44-19.17,14.94-43.11,22.4-71.85,22.4-22.55,0-42.55-5-60.02-15-17.47-10-31.14-24.09-41-42.27-9.87-18.17-14.79-39.37-14.79-63.61s4.93-45.43,14.79-63.61Z"/>
    <path class="cls-8" d="M2828.23,1445.79v113.27c0,7.89,1.9,13.6,5.71,17.12,3.8,3.53,10.21,5.28,19.23,5.28h27.47v49.87h-37.2c-49.87,0-74.81-24.23-74.81-72.7v-112.85h-27.89v-48.61h27.89v-57.9h59.6v57.9h52.41v48.61h-52.41Z"/>
    <path class="cls-8" d="M2966.44,1620.14c-18.04-10-32.19-24.16-42.48-42.48-10.29-18.31-15.43-39.45-15.43-63.4s5.28-45.08,15.85-63.4c10.57-18.31,25-32.47,43.32-42.48,18.31-10,38.74-15,61.29-15s42.97,5.01,61.28,15c18.31,10.01,32.76,24.16,43.32,42.48,10.57,18.32,15.85,39.45,15.85,63.4s-5.43,45.09-16.27,63.4c-10.85,18.32-25.51,32.48-43.96,42.48-18.46,10-39.1,15-61.92,15s-42.83-5-60.86-15Zm91.08-44.38c9.44-5.21,16.97-13.03,22.61-23.46,5.63-10.42,8.45-23.1,8.45-38.04,0-22.26-5.85-39.37-17.54-51.35-11.7-11.97-25.99-17.96-42.9-17.96s-31.06,5.99-42.48,17.96c-11.41,11.98-17.12,29.1-17.12,51.35s5.56,39.38,16.7,51.35c11.13,11.98,25.15,17.96,42.05,17.96,10.71,0,20.78-2.6,30.22-7.82Z"/>
  </g>
</svg>