<?xml version="1.0" encoding="utf-8"?>
<!-- Generator: Adobe Illustrator 26.5.0, SVG Export Plug-In . SVG Version: 6.00 Build 0)  -->
<svg version="1.1" id="Layer_1" xmlns="http://www.w3.org/2000/svg" xmlns:xlink="http://www.w3.org/1999/xlink" x="0px" y="0px"
	 viewBox="0 0 700 700" style="enable-background:new 0 0 700 700;" xml:space="preserve">
<style type="text/css">
	.st0{fill:#0D4C92;}
</style>
<g>
	<path class="st0" d="M630,280c0-54.29-15.62-105.04-42.44-147.96l0.29-0.18l-5.72-8.43c-17.86-26.47-39.85-49.16-64.72-67.73
		l-0.06-0.06c-13.38-9.96-27.59-18.75-42.5-26.17c-1.77-0.88-3.6-1.83-5.36-2.65c-2.42-1.18-4.89-2.24-7.37-3.36
		c-2.48-1.06-5.01-2.12-7.48-3.12c-2.12-0.82-4.18-1.71-6.31-2.48c-3.48-1.3-7.07-2.54-10.61-3.71c-1.24-0.41-2.48-0.88-3.77-1.3
		c-5.01-1.59-10.08-3.01-15.21-4.3c-0.94-0.23-1.89-0.41-2.77-0.65c-4.18-1-8.43-1.95-12.73-2.77c-1.53-0.29-3.07-0.53-4.6-0.82
		c-3.71-0.65-7.48-1.24-11.26-1.77c-1.71-0.23-3.36-0.47-5.07-0.65c-3.83-0.41-7.66-0.77-11.5-1.06c-1.53-0.12-3.12-0.29-4.66-0.36
		C360.79,0.17,355.42,0,350,0s-10.79,0.18-16.15,0.47c-1.53,0.12-3.12,0.23-4.66,0.36c-3.83,0.29-7.72,0.65-11.5,1.06
		c-1.71,0.18-3.36,0.41-5.07,0.65c-3.77,0.53-7.55,1.12-11.26,1.77c-1.53,0.29-3.07,0.53-4.6,0.82c-4.3,0.82-8.49,1.77-12.73,2.77
		c-0.94,0.23-1.89,0.41-2.77,0.65c-5.13,1.3-10.2,2.71-15.21,4.3c-1.24,0.41-2.48,0.82-3.71,1.24c-3.6,1.18-7.13,2.42-10.67,3.71
		c-2.12,0.77-4.18,1.65-6.31,2.48c-2.54,1-5.07,2.06-7.55,3.18c-2.48,1.06-4.89,2.18-7.37,3.3c-1.83,0.88-3.66,1.77-5.42,2.71
		c-14.85,7.43-29.06,16.15-42.38,26.11l-0.12,0.12c-24.82,18.57-46.81,41.26-64.66,67.67l-5.72,8.43l0.29,0.18
		C85.62,174.95,70,225.71,70,280s15.56,105.04,42.44,147.96l-0.29,0.18l5.72,8.43c5.01,7.43,10.43,14.44,16.04,21.28
		c0.06,0.06,0.12,0.18,0.18,0.23c14.32,17.39,30.54,32.77,48.28,46.04c0.12,0.12,0.29,0.23,0.41,0.29
		c13.26,9.9,27.29,18.51,42.03,25.88c1.89,0.94,3.77,1.89,5.66,2.83c2.36,1.12,4.77,2.18,7.19,3.24c2.54,1.12,5.13,2.18,7.72,3.24
		c2,0.82,4.07,1.65,6.13,2.42c3.6,1.36,7.25,2.59,10.91,3.83c1.18,0.41,2.3,0.82,3.48,1.18c5.01,1.59,10.14,3.01,15.27,4.3
		c0.88,0.23,1.77,0.41,2.65,0.65c4.25,1,8.49,1.95,12.85,2.83c1.53,0.29,3.01,0.53,4.54,0.82c3.77,0.65,7.48,1.24,11.32,1.77
		c1.71,0.23,3.36,0.47,5.07,0.65c3.83,0.41,7.66,0.77,11.5,1.06c1.53,0.12,3.12,0.29,4.66,0.36c5.48,0.35,10.84,0.53,16.27,0.53
		s10.79-0.18,16.15-0.47c1.53-0.12,3.12-0.23,4.66-0.36c3.83-0.29,7.72-0.65,11.5-1.06c1.71-0.18,3.36-0.41,5.07-0.65
		c3.77-0.53,7.55-1.12,11.32-1.77c1.53-0.29,3.07-0.53,4.6-0.82c4.3-0.82,8.55-1.77,12.79-2.77c0.88-0.23,1.83-0.41,2.71-0.65
		c5.13-1.3,10.2-2.71,15.21-4.3c1.18-0.36,2.36-0.82,3.54-1.18c3.66-1.18,7.25-2.48,10.85-3.77c2.06-0.77,4.12-1.59,6.19-2.42
		c2.59-1.06,5.13-2.12,7.66-3.24c2.42-1.06,4.83-2.12,7.25-3.3c1.89-0.88,3.71-1.83,5.6-2.77c14.8-7.37,28.88-16.09,42.21-26
		c0.12-0.06,0.18-0.18,0.29-0.23c17.74-13.26,34.01-28.71,48.4-46.16c0-0.06,0.06-0.06,0.06-0.12c5.66-6.84,11.08-13.91,16.15-21.4
		l5.72-8.43l-0.36-0.17C614.44,384.98,630,334.29,630,280L630,280z M486.64,504.06c-0.29,0.18-0.59,0.36-0.88,0.53
		c-2.95,1.77-5.95,3.48-9.02,5.19c-1.12,0.65-2.3,1.24-3.42,1.89c-2.65,1.41-5.3,2.77-8.02,4.12c-1.71,0.82-3.42,1.65-5.13,2.42
		c-2.36,1.06-4.66,2.18-7.07,3.18c-2.71,1.18-5.48,2.24-8.25,3.3c-1.47,0.59-2.95,1.24-4.48,1.77c-4.42,1.59-8.84,3.12-13.32,4.48
		c-1.18,0.36-2.3,0.65-3.48,1c-2.36,0.71-4.77,1.3-7.13,1.95c31.36-25.94,57.12-69.68,73.15-123.79
		c25.05,6.6,49.16,14.97,72.04,25.11C541.28,462.68,515.88,486.14,486.64,504.06L486.64,504.06z M273.02,530.94
		c-4.48-1.36-8.96-2.89-13.38-4.48c-1.47-0.53-2.89-1.12-4.3-1.71c-2.83-1.12-5.66-2.18-8.43-3.42c-2.36-1-4.66-2.06-6.96-3.18
		c-1.77-0.82-3.48-1.59-5.25-2.48c-2.65-1.3-5.3-2.65-7.96-4.07c-1.18-0.65-2.36-1.24-3.54-1.89c-3.01-1.65-6.01-3.36-8.96-5.13
		c-0.36-0.18-0.65-0.41-1-0.65c-29.18-17.86-54.59-41.32-74.81-68.79c22.81-10.14,46.92-18.51,71.98-25.11
		c16.09,54.17,41.85,97.85,73.15,123.79c-2.42-0.65-4.83-1.24-7.19-1.95C275.32,531.59,274.14,531.3,273.02,530.94L273.02,530.94z
		 M213.48,55.89c0.23-0.12,0.47-0.29,0.71-0.41c3.01-1.83,6.07-3.54,9.14-5.25c1.06-0.59,2.18-1.18,3.3-1.77
		c2.71-1.41,5.42-2.83,8.13-4.18c1.65-0.82,3.3-1.59,5.01-2.36c2.36-1.12,4.77-2.24,7.19-3.24c2.65-1.12,5.3-2.18,8.02-3.24
		c1.59-0.59,3.12-1.3,4.71-1.89c4.36-1.59,8.84-3.07,13.26-4.48c1.18-0.36,2.36-0.65,3.54-1c2.36-0.71,4.71-1.3,7.07-1.95
		c-31.36,25.94-57.12,69.68-73.15,123.79c-25.05-6.6-49.16-14.97-71.98-25.11C158.72,97.27,184.24,73.75,213.48,55.89L213.48,55.89z
		 M427.05,29.07c4.48,1.36,8.9,2.83,13.26,4.48c1.59,0.59,3.18,1.24,4.77,1.89c2.65,1.06,5.3,2.06,7.96,3.18
		c2.42,1.06,4.83,2.18,7.25,3.3c1.65,0.77,3.3,1.53,4.95,2.36c2.77,1.36,5.48,2.77,8.2,4.18c1.06,0.59,2.18,1.18,3.24,1.77
		c3.12,1.71,6.19,3.48,9.2,5.3c0.23,0.12,0.41,0.23,0.59,0.41c29.3,17.92,54.82,41.38,75.1,68.97
		c-22.81,10.14-46.92,18.51-71.98,25.11c-16.09-54.17-41.85-97.85-73.15-123.79c2.36,0.59,4.71,1.24,7.07,1.95
		C424.64,28.36,425.88,28.71,427.05,29.07L427.05,29.07z M507.52,271.28c-0.65-37.08-5.36-72.33-13.38-104.45
		c27-7.13,52.93-16.27,77.4-27.35c24.4,38.38,39.14,83.41,40.73,131.8L507.52,271.28z M358.73,18.04
		c49.22,5.72,91.66,59.18,114.18,135.93c-36.55,8.31-74.92,12.85-114.18,13.44V18.04z M341.28,167.47
		c-39.2-0.59-77.63-5.13-114.18-13.44c22.52-76.81,64.96-130.27,114.18-135.99V167.47z M341.28,184.92v86.3H209.94
		c0.65-35.72,5.07-69.62,12.61-100.33C260.58,179.61,300.48,184.33,341.28,184.92L341.28,184.92z M341.28,288.72v86.3
		c-40.73,0.59-80.64,5.36-118.66,14.03c-7.55-30.77-11.96-64.66-12.61-100.33L341.28,288.72z M341.28,392.53V541.9
		c-49.22-5.72-91.66-59.18-114.18-135.93C263.64,397.66,302.02,393.12,341.28,392.53L341.28,392.53z M358.73,392.53
		c39.2,0.59,77.57,5.13,114.18,13.44c-22.52,76.75-64.96,130.27-114.18,135.93V392.53z M358.73,375.02v-86.3h131.28
		c-0.65,35.72-5.07,69.62-12.61,100.33C439.37,380.38,399.52,375.61,358.73,375.02L358.73,375.02z M358.73,271.27v-86.36
		c40.73-0.59,80.64-5.36,118.66-14.03c7.55,30.77,11.96,64.66,12.61,100.33l-131.27,0L358.73,271.27z M205.88,166.75
		c-8.02,32.12-12.73,67.38-13.38,104.45l-104.75,0c1.59-48.34,16.33-93.43,40.73-131.8C152.94,150.54,178.88,159.68,205.88,166.75
		L205.88,166.75z M192.49,288.71c0.65,37.08,5.36,72.33,13.38,104.45c-27,7.13-52.93,16.27-77.4,27.35
		c-24.4-38.38-39.14-83.41-40.73-131.8L192.49,288.71z M494.12,393.17c8.02-32.12,12.73-67.38,13.38-104.45h104.75
		c-1.59,48.34-16.33,93.43-40.73,131.8C547.06,409.44,521.12,400.3,494.12,393.17L494.12,393.17z"/>
	<g>
		<defs>
			<line id="SVGID_1_" x1="860.13" y1="1348.42" x2="160.13" y2="1348.42"/>
		</defs>
		<clipPath id="SVGID_00000054249060476854448280000017413221499013609150_">
			<use xlink:href="#SVGID_1_"  style="overflow:visible;"/>
		</clipPath>
	</g>
	<g>
		<defs>
			<line id="SVGID_00000088093525863779216690000016801385954824716424_" x1="974.88" y1="1348.42" x2="274.88" y2="1348.42"/>
		</defs>
		<clipPath id="SVGID_00000056428931615881878170000002190753113193071491_">
			<use xlink:href="#SVGID_00000088093525863779216690000016801385954824716424_"  style="overflow:visible;"/>
		</clipPath>
	</g>
	<g>
		<defs>
			<line id="SVGID_00000166671582616388069840000008144624499167531967_" x1="994.87" y1="1348.42" x2="294.87" y2="1348.42"/>
		</defs>
		<clipPath id="SVGID_00000084514207627198801170000015128029478675210131_">
			<use xlink:href="#SVGID_00000166671582616388069840000008144624499167531967_"  style="overflow:visible;"/>
		</clipPath>
	</g>
	<g>
		<defs>
			<line id="SVGID_00000158724185214449271550000005421931872130324906_" x1="1060.85" y1="1348.42" x2="360.85" y2="1348.42"/>
		</defs>
		<clipPath id="SVGID_00000002376390062700991910000003175035612367946170_">
			<use xlink:href="#SVGID_00000158724185214449271550000005421931872130324906_"  style="overflow:visible;"/>
		</clipPath>
	</g>
	<g>
		<defs>
			<line id="SVGID_00000158011046365723156630000012125652331390026124_" x1="1111.98" y1="1348.42" x2="411.98" y2="1348.42"/>
		</defs>
		<clipPath id="SVGID_00000161631656482077591120000011848677452791212199_">
			<use xlink:href="#SVGID_00000158011046365723156630000012125652331390026124_"  style="overflow:visible;"/>
		</clipPath>
	</g>
	<g>
		<defs>
			<line id="SVGID_00000059304211458411281500000004311524906005339551_" x1="1126.07" y1="1348.42" x2="426.07" y2="1348.42"/>
		</defs>
		<clipPath id="SVGID_00000142888726248781029310000009721379078173145498_">
			<use xlink:href="#SVGID_00000059304211458411281500000004311524906005339551_"  style="overflow:visible;"/>
		</clipPath>
	</g>
	<g>
		<defs>
			<line id="SVGID_00000104679203692421754000000016572473645371881601_" x1="1145.96" y1="1348.42" x2="445.96" y2="1348.42"/>
		</defs>
		<clipPath id="SVGID_00000162353227765453127960000013809124545825896579_">
			<use xlink:href="#SVGID_00000104679203692421754000000016572473645371881601_"  style="overflow:visible;"/>
		</clipPath>
	</g>
	<g>
		<defs>
			<line id="SVGID_00000134235757342791232070000004239925556035805620_" x1="1166.95" y1="1348.42" x2="466.95" y2="1348.42"/>
		</defs>
		<clipPath id="SVGID_00000116915413564266884050000013947643568798089659_">
			<use xlink:href="#SVGID_00000134235757342791232070000004239925556035805620_"  style="overflow:visible;"/>
		</clipPath>
	</g>
	<g>
		<defs>
			<line id="SVGID_00000142893449215810617990000004011546120581279414_" x1="1179.77" y1="1348.42" x2="479.77" y2="1348.42"/>
		</defs>
		<clipPath id="SVGID_00000145028286197174267240000002518651596038667706_">
			<use xlink:href="#SVGID_00000142893449215810617990000004011546120581279414_"  style="overflow:visible;"/>
		</clipPath>
	</g>
	<g>
		<defs>
			<line id="SVGID_00000049209508439149879720000006622855876472227493_" x1="770" y1="1377.89" x2="70" y2="1377.89"/>
		</defs>
		<clipPath id="SVGID_00000026149367982834895990000015416839249076744330_">
			<use xlink:href="#SVGID_00000049209508439149879720000006622855876472227493_"  style="overflow:visible;"/>
		</clipPath>
	</g>
	<g>
		<defs>
			<line id="SVGID_00000010293121009057458970000002773033361517703816_" x1="782.82" y1="1377.89" x2="82.82" y2="1377.89"/>
		</defs>
		<clipPath id="SVGID_00000144330602160680839560000016622086093961816207_">
			<use xlink:href="#SVGID_00000010293121009057458970000002773033361517703816_"  style="overflow:visible;"/>
		</clipPath>
	</g>
	<g>
		<defs>
			<line id="SVGID_00000155140586383305476480000011335446462640939942_" x1="858.58" y1="1377.89" x2="158.58" y2="1377.89"/>
		</defs>
		<clipPath id="SVGID_00000152254636453817813810000013369516797567279288_">
			<use xlink:href="#SVGID_00000155140586383305476480000011335446462640939942_"  style="overflow:visible;"/>
		</clipPath>
	</g>
	<g>
		<defs>
			<line id="SVGID_00000067937102337211002870000007818700585003024517_" x1="893.65" y1="1377.89" x2="193.65" y2="1377.89"/>
		</defs>
		<clipPath id="SVGID_00000039823748072028244350000009943528026602957217_">
			<use xlink:href="#SVGID_00000067937102337211002870000007818700585003024517_"  style="overflow:visible;"/>
		</clipPath>
	</g>
	<g>
		<defs>
			<line id="SVGID_00000152979178241257435290000012730632779862737576_" x1="948.57" y1="1377.89" x2="248.57" y2="1377.89"/>
		</defs>
		<clipPath id="SVGID_00000060008463769776884740000001232249709674393767_">
			<use xlink:href="#SVGID_00000152979178241257435290000012730632779862737576_"  style="overflow:visible;"/>
		</clipPath>
	</g>
	<g>
		<defs>
			<line id="SVGID_00000006692300911968394210000008234469538363581595_" x1="968.82" y1="1377.89" x2="268.82" y2="1377.89"/>
		</defs>
		<clipPath id="SVGID_00000036967771463283472510000016075011152956623758_">
			<use xlink:href="#SVGID_00000006692300911968394210000008234469538363581595_"  style="overflow:visible;"/>
		</clipPath>
	</g>
	<g>
		<defs>
			<line id="SVGID_00000112598342424128904610000009992270150329315497_" x1="989.8" y1="1377.89" x2="289.8" y2="1377.89"/>
		</defs>
		<clipPath id="SVGID_00000166651675462658946800000004434525753752491433_">
			<use xlink:href="#SVGID_00000112598342424128904610000009992270150329315497_"  style="overflow:visible;"/>
		</clipPath>
	</g>
	<g>
		<defs>
			<line id="SVGID_00000139265776187495610950000018425055897436224135_" x1="1042.64" y1="1377.89" x2="342.64" y2="1377.89"/>
		</defs>
		<clipPath id="SVGID_00000165957218831275968400000018114016881288823459_">
			<use xlink:href="#SVGID_00000139265776187495610950000018425055897436224135_"  style="overflow:visible;"/>
		</clipPath>
	</g>
	<g>
		<defs>
			<line id="SVGID_00000059990216736358176500000011738652887449299608_" x1="1057.18" y1="1377.89" x2="357.18" y2="1377.89"/>
		</defs>
		<clipPath id="SVGID_00000052803845274678744080000014948443052693490103_">
			<use xlink:href="#SVGID_00000059990216736358176500000011738652887449299608_"  style="overflow:visible;"/>
		</clipPath>
	</g>
	<g>
		<defs>
			<line id="SVGID_00000119080225695081784130000012078556461716505731_" x1="1087.53" y1="1377.89" x2="387.53" y2="1377.89"/>
		</defs>
		<clipPath id="SVGID_00000051368572619866273390000015659803265557290168_">
			<use xlink:href="#SVGID_00000119080225695081784130000012078556461716505731_"  style="overflow:visible;"/>
		</clipPath>
	</g>
	<g>
		<defs>
			<line id="SVGID_00000030464883491827716220000005587898734665963649_" x1="1124.99" y1="1377.89" x2="424.99" y2="1377.89"/>
		</defs>
		<clipPath id="SVGID_00000104665717797339836260000007629167711797652155_">
			<use xlink:href="#SVGID_00000030464883491827716220000005587898734665963649_"  style="overflow:visible;"/>
		</clipPath>
	</g>
</g>
</svg>
