<svg width="38" height="38" viewBox="0 0 38 38" fill="none" xmlns="http://www.w3.org/2000/svg">
<g clip-path="url(#clip0_19_1273)">
<path d="M-7 -5H38V38H-7V-5Z" fill="#001533"/>
<path d="M19 9.425C20.1366 9.425 21.2267 9.8596 22.0305 10.6332C22.8342 11.4068 23.2857 12.456 23.2857 13.55C23.2857 14.0917 23.1749 14.6281 22.9595 15.1286C22.7441 15.629 22.4284 16.0838 22.0305 16.4668C21.6325 16.8499 21.16 17.1537 20.6401 17.361C20.1201 17.5683 19.5628 17.675 19 17.675C17.8634 17.675 16.7733 17.2404 15.9695 16.4668C15.1658 15.6932 14.7143 14.644 14.7143 13.55C14.7143 12.456 15.1658 11.4068 15.9695 10.6332C16.7733 9.8596 17.8634 9.425 19 9.425ZM19 2C22.1826 2 25.2348 3.21687 27.4853 5.38292C29.7357 7.54896 31 10.4867 31 13.55C31 22.2125 19 35 19 35C19 35 7 22.2125 7 13.55C7 10.4867 8.26428 7.54896 10.5147 5.38292C12.7652 3.21687 15.8174 2 19 2M19 5.3C16.7267 5.3 14.5465 6.16919 12.9391 7.71637C11.3316 9.26354 10.4286 11.362 10.4286 13.55C10.4286 15.2 10.4286 18.5 19 29.5715C27.5714 18.5 27.5714 15.2 27.5714 13.55C27.5714 11.362 26.6684 9.26354 25.0609 7.71637C23.4535 6.16919 21.2733 5.3 19 5.3V5.3Z" fill="#D9D9D9"/>
</g>
<defs>
<clipPath id="clip0_19_1273">
<rect width="38" height="38" fill="white"/>
</clipPath>
</defs>
</svg>
