<?xml version="1.0" encoding="utf-8"?>
<!-- Generator: Adobe Illustrator 26.5.0, SVG Export Plug-In . SVG Version: 6.00 Build 0)  -->
<svg version="1.1" id="Layer_1" xmlns="http://www.w3.org/2000/svg" xmlns:xlink="http://www.w3.org/1999/xlink" x="0px" y="0px"
	 viewBox="0 0 700 700" style="enable-background:new 0 0 700 700;" xml:space="preserve">
<style type="text/css">
	.st0{fill:#0D4C92;}
</style>
<g>
	<path class="st0" d="M534.8,123.2H305.2c-3.36,0-5.6,2.24-5.6,5.6v100.8c0,3.36,2.24,5.6,5.6,5.6c3.36,0,5.6-2.24,5.6-5.6v-95.2
		h218.4v156.8H411.04c-1.68,0-2.8,0.56-3.92,1.68l-40.32,39.76V296.8c0-3.36-2.24-5.6-5.6-5.6h-30.24
		c-7.28-29.12-33.6-50.4-64.96-50.4c-36.96,0-67.2,30.24-67.2,67.2c0,26.88,15.68,49.84,38.08,60.48
		c-34.72,10.08-63.28,36.96-75.04,72.8c-1.12,2.8,0.56,6.16,3.36,7.28s6.16-0.56,7.28-3.36c13.44-42,52.08-70,95.76-70
		s82.32,28,95.76,69.44c0.56,2.24,2.8,3.92,5.6,3.92h1.68c2.8-1.12,4.48-3.92,3.36-7.28c-12.32-36.96-42-64.4-78.4-73.36
		c21.84-11.2,36.4-33.6,36.4-59.92c0-1.68,0-3.92-0.56-5.6h23.52v44.24c0,2.24,1.12,4.48,3.36,5.04c0.56,0.56,1.68,0.56,2.24,0.56
		c1.68,0,2.8-0.56,3.92-1.68l48.16-48.16l121.52,0c3.36,0,5.6-2.24,5.6-5.6l0-168C540.4,125.44,538.16,123.19,534.8,123.2
		L534.8,123.2z M266,364c-30.8,0-56-25.2-56-56s25.2-56,56-56s56,25.2,56,56S296.8,364,266,364z"/>
	<path class="st0" d="M355.6,184.8H490c3.36,0,5.6-2.24,5.6-5.6c0-3.36-2.24-5.6-5.6-5.6l-134.4,0c-3.36,0-5.6,2.24-5.6,5.6
		C350,182.56,352.24,184.8,355.6,184.8L355.6,184.8z"/>
	<path class="st0" d="M355.6,218.4H434c3.36,0,5.6-2.24,5.6-5.6c0-3.36-2.24-5.6-5.6-5.6l-78.4,0c-3.36,0-5.6,2.24-5.6,5.6
		C350,216.16,352.24,218.4,355.6,218.4L355.6,218.4z"/>
</g>
</svg>
