<svg width="30" height="30" viewBox="0 0 30 30" fill="none" xmlns="http://www.w3.org/2000/svg">
<g clip-path="url(#clip0_19_1293)">
<rect x="-3" y="-3.59998" width="42.6" height="42.6" fill="#001533"/>
<path d="M15 3.59998C16.0465 3.59998 17.0559 3.73357 18.0281 4.00076C19.0004 4.26794 19.9096 4.65017 20.7557 5.14744C21.6018 5.6447 22.3699 6.23845 23.0602 6.92869C23.7504 7.61892 24.3441 8.3908 24.8414 9.24431C25.3387 10.0978 25.7209 11.007 25.9881 11.9719C26.2553 12.9367 26.3926 13.9461 26.4 15C26.4 16.0465 26.2664 17.0558 25.9992 18.0281C25.732 19.0004 25.3498 19.9095 24.8525 20.7556C24.3553 21.6017 23.7615 22.3699 23.0713 23.0601C22.3811 23.7504 21.6092 24.3441 20.7557 24.8414C19.9022 25.3386 18.993 25.7209 18.0281 25.9881C17.0633 26.2552 16.0539 26.3926 15 26.4C13.9535 26.4 12.9441 26.2664 11.9719 25.9992C10.9996 25.732 10.0904 25.3498 9.24434 24.8525C8.39825 24.3552 7.63008 23.7615 6.93985 23.0713C6.24962 22.381 5.65587 21.6092 5.1586 20.7556C4.66133 19.9021 4.27911 18.9967 4.01192 18.0392C3.74473 17.0818 3.60743 16.0687 3.60001 15C3.60001 13.9535 3.7336 12.9441 4.00079 11.9719C4.26797 10.9996 4.6502 10.0904 5.14747 9.24431C5.64473 8.39822 6.23848 7.63005 6.92872 6.93982C7.61895 6.24958 8.39083 5.65583 9.24434 5.15857C10.0979 4.6613 11.0033 4.27908 11.9607 4.01189C12.9182 3.7447 13.9313 3.6074 15 3.59998ZM15 24.975C15.9129 24.975 16.7924 24.8562 17.6385 24.6187C18.4846 24.3812 19.2787 24.0472 20.0209 23.6168C20.7631 23.1863 21.4385 22.6631 22.0471 22.047C22.6557 21.431 23.1752 20.7594 23.6057 20.032C24.0361 19.3047 24.3738 18.5105 24.6188 17.6496C24.8637 16.7886 24.9824 15.9054 24.975 15C24.975 14.0871 24.8563 13.2076 24.6188 12.3615C24.3813 11.5154 24.0473 10.7213 23.6168 9.97908C23.1863 9.23689 22.6631 8.5615 22.0471 7.95291C21.4311 7.34431 20.7594 6.82478 20.032 6.39431C19.3047 5.96384 18.5106 5.62615 17.6496 5.38123C16.7887 5.1363 15.9055 5.01755 15 5.02498C14.0871 5.02498 13.2076 5.14373 12.3615 5.38123C11.5154 5.61873 10.7213 5.95271 9.97911 6.38318C9.23692 6.81365 8.56153 7.33689 7.95294 7.95291C7.34434 8.56892 6.82481 9.2406 6.39434 9.96794C5.96387 10.6953 5.62618 11.4894 5.38126 12.3504C5.13633 13.2113 5.01758 14.0945 5.02501 15C5.02501 15.9129 5.14376 16.7924 5.38126 17.6385C5.61876 18.4845 5.95274 19.2787 6.38321 20.0209C6.81368 20.7631 7.33692 21.4385 7.95294 22.047C8.56895 22.6556 9.24063 23.1752 9.96797 23.6056C10.6953 24.0361 11.4895 24.3738 12.3504 24.6187C13.2113 24.8636 14.0945 24.9824 15 24.975ZM21.6463 15.1781L22.1807 13.575H23.0156L22.0693 16.425H21.2344L20.7 14.8219L20.1656 16.425H19.3307L18.3844 13.575H19.2193L19.7537 15.1781L20.2881 13.575H21.1119L21.6463 15.1781ZM16.4807 13.575H17.3156L16.3693 16.425H15.5344L15 14.8219L14.4656 16.425H13.6307L12.6844 13.575H13.5193L14.0537 15.1781L14.5881 13.575H15.4119L15.9463 15.1781L16.4807 13.575ZM10.7807 13.575H11.6156L10.6693 16.425H9.83438L9.30001 14.8219L8.76563 16.425H7.93067L6.98438 13.575H7.81934L8.35372 15.1781L8.88809 13.575H9.71192L10.2463 15.1781L10.7807 13.575Z" fill="#D9D9D9"/>
</g>
<defs>
<clipPath id="clip0_19_1293">
<rect width="30" height="30" fill="white"/>
</clipPath>
</defs>
</svg>
