<?xml version="1.0" encoding="utf-8"?>
<!-- Generator: Adobe Illustrator 26.5.0, SVG Export Plug-In . SVG Version: 6.00 Build 0)  -->
<svg version="1.1" id="Layer_1" xmlns="http://www.w3.org/2000/svg" xmlns:xlink="http://www.w3.org/1999/xlink" x="0px" y="0px"
	 viewBox="0 0 700 700" style="enable-background:new 0 0 700 700;" xml:space="preserve">
<style type="text/css">
	.st0{fill:#0D4C92;}
</style>
<g>
	<path class="st0" d="M580.65,174.04c-4.99-6.39-12.51-9.98-20.65-9.98H270.38c-6.91,0-13.3,2.1-18.81,5.6
		c-0.18,0-0.26,0.18-0.44,0.26c-7.09,4.73-12.51,11.9-14.7,20.65l-7.09,28.35h-87.24c-4.81,0-8.75,3.94-8.75,8.75
		s3.94,8.75,8.75,8.75h113.75c4.81,0,8.75-3.94,8.75-8.75s-3.94-8.75-8.75-8.75h-8.49l6.04-24.15c0.44-1.93,1.31-3.76,2.36-5.34
		l132.48,114.45c4.9,4.2,11.02,6.3,17.15,6.3c5.6,0,11.11-1.75,15.75-5.25L567.97,194.6l-46.02,184.01
		c-0.96,3.85-4.46,6.56-8.49,6.56l-296.45,0c-2.8,0-10.5-2.8-8.49-10.94l1.66-6.56h10.68c4.81,0,8.75-3.94,8.75-8.75
		s-3.94-8.75-8.75-8.75h-6.3l23.54-94.15c1.14-4.73-1.66-9.45-6.39-10.59c-4.73-1.14-9.45,1.66-10.59,6.39l-24.59,98.35l-71.93,0
		c-4.81,0-8.75,3.94-8.75,8.75s3.94,8.75,8.75,8.75h67.55l-0.61,2.36c-1.93,7.96-0.18,16.19,4.9,22.57
		c4.99,6.39,12.51,9.98,20.65,9.98l296.36,0c12.07,0,22.57-8.14,25.46-19.86l46.55-186.2C587.39,188.64,585.64,180.42,580.65,174.04
		L580.65,174.04z M410.55,290.85c-3.24,2.45-7.88,2.27-10.94-0.35L273.35,181.48h282.8L410.55,290.85z"/>
	<path class="st0" d="M168.35,148.75h17.5c4.81,0,8.75-3.94,8.75-8.75s-3.94-8.75-8.75-8.75h-17.5c-4.81,0-8.75,3.94-8.75,8.75
		S163.54,148.75,168.35,148.75z"/>
	<path class="st0" d="M238.35,148.75h43.75c4.81,0,8.75-3.94,8.75-8.75s-3.94-8.75-8.75-8.75h-43.75c-4.81,0-8.75,3.94-8.75,8.75
		S233.54,148.75,238.35,148.75z"/>
	<path class="st0" d="M150.85,262.5c4.81,0,8.75-3.94,8.75-8.75s-3.94-8.75-8.75-8.75h-35c-4.81,0-8.75,3.94-8.75,8.75
		s3.94,8.75,8.75,8.75H150.85z"/>
</g>
</svg>
