<svg width="36" height="36" viewBox="0 0 36 36" fill="none" xmlns="http://www.w3.org/2000/svg">
<g clip-path="url(#clip0_19_1286)">
<rect x="-5" y="-6" width="46" height="47" fill="#001533"/>
<path d="M9.91667 8.66667C10 9.85333 10.2083 11.0133 10.5417 12.12L8.875 13.72C8.30556 12.12 7.94444 10.4267 7.81944 8.66667H9.91667M23.6111 24.6933C24.7917 25.0133 26 25.2133 27.2222 25.2933V27.28C25.3889 27.16 23.625 26.8133 21.9444 26.28L23.6111 24.6933M11.25 6H6.38889C5.625 6 5 6.6 5 7.33333C5 19.8533 15.5694 30 28.6111 30C29.375 30 30 29.4 30 28.6667V24.0133C30 23.28 29.375 22.68 28.6111 22.68C26.8889 22.68 25.2083 22.4133 23.6528 21.92C23.5149 21.872 23.3688 21.8494 23.2222 21.8533C22.8611 21.8533 22.5139 21.9867 22.2361 22.24L19.1806 25.1733C15.2436 23.2405 12.0411 20.1661 10.0278 16.3867L13.0833 13.4533C13.4722 13.08 13.5833 12.56 13.4306 12.0933C12.9037 10.5574 12.6364 8.9504 12.6389 7.33333C12.6389 6.6 12.0139 6 11.25 6Z" fill="#D9D9D9"/>
</g>
<defs>
<clipPath id="clip0_19_1286">
<rect width="36" height="36" fill="white"/>
</clipPath>
</defs>
</svg>
