<?xml version="1.0" encoding="utf-8"?>
<!-- Generator: Adobe Illustrator 26.5.0, SVG Export Plug-In . SVG Version: 6.00 Build 0)  -->
<svg version="1.1" id="Layer_1" xmlns="http://www.w3.org/2000/svg" xmlns:xlink="http://www.w3.org/1999/xlink" x="0px" y="0px"
	 viewBox="0 0 700 700" style="enable-background:new 0 0 700 700;" xml:space="preserve">
<style type="text/css">
	.st0{fill:#0D4C92;}
</style>
<g>
	<path class="st0" d="M254.02,59.88c-20.59,0-36.64,18.39-36.64,40.47v359.3c0,22.08,16.05,40.47,36.64,40.47h191.95
		c20.59,0,36.64-18.39,36.64-40.47v-359.3c0-22.08-16.05-40.47-36.64-40.47L254.02,59.88z M254.02,80.12h191.95
		c8.75,0,16.41,8.79,16.41,20.23v359.3c0,11.45-7.66,20.23-16.41,20.23H254.02c-8.75,0-16.41-8.79-16.41-20.23v-359.3
		C237.61,88.91,245.27,80.12,254.02,80.12L254.02,80.12z M315,94.88c-5.6,0-10.12,4.52-10.12,10.12s4.52,10.12,10.12,10.12h70
		c5.6,0,10.12-4.52,10.12-10.12S390.59,94.88,385,94.88H315z M146.02,165.16c-2.51,0.66-4.88,2.23-6.29,4.65
		c-19.45,33.27-29.81,71.09-29.81,110.47c0,39.04,10.12,76.86,29.26,109.92c2.8,4.84,9.1,6.36,13.94,3.55
		c4.85-2.8,6.36-9.1,3.55-13.95c-17.36-30-26.52-64.09-26.52-99.53c0-35.76,9.42-69.89,27.07-100.08
		c2.82-4.83,1.28-11.12-3.55-13.94C151.25,164.83,148.52,164.5,146.02,165.16L146.02,165.16z M552.07,165.16
		c-2.51-0.67-5.23-0.31-7.66,1.09c-4.84,2.8-6.36,9.1-3.55,13.94c17.36,30,26.52,64.09,26.52,99.53c0,35.76-9.42,69.89-27.07,100.08
		c-2.83,4.83-1.28,11.12,3.55,13.95c4.83,2.83,11.12,1.28,13.95-3.55c19.45-33.27,29.8-71.09,29.8-110.47
		c0-39.04-10.12-76.86-29.26-109.92C556.95,167.38,554.57,165.83,552.07,165.16L552.07,165.16z M179.65,199.34
		c-2.43,0.9-4.57,2.93-5.74,5.47c-10.84,23.55-16.41,48.98-16.41,75.47c0,26,5.4,51.45,15.86,74.65c2.3,5.1,8.3,7.22,13.4,4.92
		c5.1-2.3,7.22-8.3,4.92-13.4c-9.29-20.59-13.94-43.06-13.94-66.17c0-23.54,4.87-46.09,14.49-66.99c2.34-5.09,0.16-11.33-4.92-13.67
		C184.76,198.44,182.08,198.44,179.65,199.34L179.65,199.34z M518.44,199.88c-2.43-0.92-5.11-0.88-7.66,0.27
		c-5.1,2.3-7.5,8.3-5.2,13.4c9.29,20.59,14.22,43.06,14.22,66.17c0,23.54-5.14,46.09-14.77,66.99c-2.34,5.09,0.11,11.33,5.2,13.67
		s11.05-0.11,13.4-5.2c10.84-23.55,16.41-48.98,16.41-75.47c0-26-5.4-51.45-15.86-74.65C523.03,202.53,520.86,200.8,518.44,199.88
		L518.44,199.88z M348.91,420c-10.22,0-18.32,8.38-18.32,18.59s8.1,18.32,18.32,18.32s18.59-8.1,18.59-18.32S359.13,420,348.91,420z
		"/>
</g>
</svg>
