<?xml version="1.0" encoding="utf-8"?>
<!-- Generator: Adobe Illustrator 26.5.0, SVG Export Plug-In . SVG Version: 6.00 Build 0)  -->
<svg version="1.1" id="Layer_1" xmlns="http://www.w3.org/2000/svg" xmlns:xlink="http://www.w3.org/1999/xlink" x="0px" y="0px"
	 viewBox="0 0 700 700" style="enable-background:new 0 0 700 700;" xml:space="preserve">
<style type="text/css">
	.st0{fill:#0D4C92;}
</style>
<g>
	<path class="st0" d="M547.61,394.27l-23.09-128.59c-2.4-13.65-13.2-23.55-25.69-23.55h-8V133.99c0-15.69-14.4-28.45-32.11-28.45
		H241.27c-17.7,0-32.11,12.77-32.11,28.45v108.12h-8c-12.48,0-23.29,9.91-25.68,23.52l-23.1,128.62
		c-2.91,16.12,1.28,32.86,11.24,44.77c8.3,9.95,19.51,15.43,31.57,15.43h309.59c12.06,0,23.27-5.48,31.57-15.43
		C546.32,427.11,550.51,410.37,547.61,394.27L547.61,394.27z M375.5,436.95l80.15-70.56c1.95-1.71,3.04-4.22,2.96-6.82
		c-0.08-2.6-1.3-5.02-3.35-6.63l-79.58-62.49l6.81-9.73h37.1l66.8,43.85c1.43,0.94,3.1,1.43,4.8,1.43h26.38l8.41,46.85h-27.95
		c-2.18,0-4.28,0.81-5.9,2.29l-67.8,61.83L375.5,436.95L375.5,436.95z M176.25,426.55c-5.98-7.9-8.53-18.63-6.62-29.19l1.61-8.96
		l145.51-107.69h0.74l19.03,27.22L176.25,426.55z M507.3,268.73l7.14,39.76h-20.62l-42.32-27.78h7.25c14.81,0,27.2-8.98,30.89-21.1
		h9.22C502.75,259.61,506.38,263.52,507.3,268.73L507.3,268.73z M226.67,133.98c0-5.94,6.7-10.95,14.61-10.95h217.45
		c7.92,0,14.61,5.02,14.61,10.95v118.27c0,5.94-6.7,10.96-14.61,10.96h-80.09c-2.96-0.19-6.02,1.08-7.85,3.71L350,296.67
		l-20.8-29.74c-1.68-2.41-4.38-3.73-7.16-3.73c-0.18,0-0.36,0.01-0.54,0.02h-80.21c-7.92,0-14.61-5.02-14.61-10.96L226.67,133.98
		L226.67,133.98z M192.73,268.69c0.91-5.18,4.54-9.08,8.45-9.08h9.22c3.69,12.11,16.07,21.1,30.89,21.1h46.05l-111.59,82.58
		L192.73,268.69z M192.1,436.58l156.79-116.04c0.37,0.04,0.73,0.13,1.1,0.13c2.85,0,5.54-1.39,7.17-3.73l8.5-12.14l70.54,55.41
		l-87.18,76.75l-153.8,0C194.16,436.94,193.14,436.73,192.1,436.58L192.1,436.58z M522.96,427.82c-4.93,5.9-11.38,9.14-18.15,9.14
		h-54.48l51.12-46.61h27.7l1.26,7.03C532.41,408.45,529.62,419.82,522.96,427.82L522.96,427.82z"/>
	<path class="st0" d="M285,159.25h133.85c4.84,0,8.75-3.91,8.75-8.75s-3.91-8.75-8.75-8.75H285c-4.84,0-8.75,3.91-8.75,8.75
		S280.17,159.25,285,159.25z"/>
	<path class="st0" d="M401.96,223.5H301.89c-4.84,0-8.75,3.91-8.75,8.75s3.91,8.75,8.75,8.75h100.08c4.84,0,8.75-3.91,8.75-8.75
		C410.72,227.41,406.8,223.5,401.96,223.5L401.96,223.5z"/>
	<path class="st0" d="M268.83,200.13h166.2c4.84,0,8.75-3.91,8.75-8.75s-3.91-8.75-8.75-8.75h-166.2c-4.84,0-8.75,3.91-8.75,8.75
		S263.99,200.13,268.83,200.13L268.83,200.13z"/>
</g>
</svg>
