<svg width="88" height="88" viewBox="0 0 88 88" fill="none" xmlns="http://www.w3.org/2000/svg">
<g clip-path="url(#clip0_19_892)">
<g filter="url(#filter0_d_19_892)">
<path d="M45 1L55.3276 32.0942H88.7486L61.7105 51.3115L72.0381 82.4058L45 63.1885L17.9619 82.4058L28.2895 51.3115L1.2514 32.0942H34.6724L45 1Z" fill="#A92525"/>
</g>
<path d="M51.5075 78.2581C51.5075 78.2581 47.5887 77.9487 47.4306 75.6525L45.2031 69.1831L54.89 60.1769C54.89 60.1769 61.9919 60.0394 62.3975 60.0394C62.81 60.0394 64.7144 69.1831 64.7144 69.1831L61.3044 74.7794L51.5075 78.2581Z" fill="#2F2F2F"/>
<path d="M51.5831 36.9394C51.7962 38.8369 52.2019 40.4937 53.5287 41.8894C54.5944 43.0031 55.7081 43.9519 56.6912 45.1412C59.5237 48.5719 64.295 49.7544 67.2237 53.35C69.1762 55.7494 70.5031 58.6919 71.1769 61.6756C71.9331 65.0306 72.4006 68.7362 71.4656 72.0362C70.18 76.56 66.2269 77.11 62.095 77.7356C60.1975 78.0244 58.2656 78.1894 56.3406 78.2444C54.8075 78.2856 53.0337 78.4781 51.5006 78.265C50.16 78.0725 49.9056 76.2575 50.27 75.1919C50.655 74.0437 51.81 73.6106 52.8894 73.4044C53.4187 73.3012 53.9756 73.4525 54.5119 73.3631C55.5087 73.205 55.9281 72.5519 55.9487 71.555C55.9694 70.1937 56.4369 69.0594 57.0625 67.87C57.3444 67.3337 57.8187 66.8594 58.2725 66.4537C58.7331 66.0275 59.5306 65.4431 59.0906 64.7006C58.3344 63.4081 56.0381 64.5975 55.2612 65.1544C54.0581 66.0069 53.2056 67.2994 52.8344 68.7225C52.305 70.6956 51.8994 70.8262 50.0569 71.5275C48.9706 71.9469 47.9669 72.6412 47.5544 73.7206C47.0525 75.0612 47.8912 76.6425 47.025 77.8112C46.3444 78.7462 45.0244 79.2619 43.8144 79.2137C40.6931 79.0762 38.6031 78.3131 39.2562 75.1369C39.6687 73.1431 39.5381 70.9569 39.6619 68.8875C39.7031 68.1106 39.7787 66.9212 39.0019 66.3781C38.6994 66.1581 38.28 66.1237 37.9294 66.1444C37.6887 66.1512 37.0837 66.1169 36.8569 66.1925C36.19 66.4056 36.3481 67.4781 36.355 68.0419C36.3619 69.1281 36.3412 70.235 36.3137 71.3075C36.2862 72.5794 36.4237 73.8375 36.4375 75.0956C36.4444 75.9206 36.52 76.9381 35.8394 77.5225C35.0625 78.21 33.8731 78.3612 32.8144 78.3956C31.5425 78.4437 30.0919 78.3475 29.0331 77.605C26.8675 76.0787 27.6031 72.5794 27.8025 70.5375C27.9331 69.2106 27.8369 67.8287 27.8025 66.4675C27.775 65.2437 27.7406 64.0131 27.7131 62.7756C27.6994 62.2669 27.6306 61.7169 27.6581 61.1944C27.7612 59.7506 27.4656 58.2725 27.4244 56.7737C27.3556 54.0237 27.2112 51.2256 27.2112 48.4275C27.2112 47.2312 27.4175 45.9181 27.7612 44.7837C27.9469 44.1787 28.1462 43.3675 28.4694 42.8381C28.9781 41.9925 29.8581 41.2362 30.5937 40.5762C31.5425 39.7306 32.67 39.3044 33.7562 38.6512C35.1656 37.7987 36.6369 36.9944 38.1631 36.3412C40.8444 35.2 43.7112 34.2237 46.7087 34.1137C47.7606 34.0725 48.5512 33.9075 49.5687 33.6737C50.5931 33.44 51.1019 34.1275 51.2875 35.09C51.4456 35.6881 51.5144 36.3137 51.5831 36.9394ZM40.6519 17.1394C40.6519 17.1394 39.1875 15.345 35.7775 10.4156C33.6737 7.36312 27.0394 -1.23063 23.6844 0.549993C18.5075 3.28624 19.085 22.6737 19.085 22.6737L40.6519 17.1394ZM42.8244 17.3731C42.8244 17.3731 44.6325 15.9294 48.9912 11.8044C51.6931 9.26062 59.9637 2.24124 62.8787 4.66812C67.375 8.42187 62.7756 27.2662 62.7756 27.2662L42.8244 17.3731Z" fill="#F79329"/>
<path d="M65.5256 35.6675C65.7525 29.6794 62.9613 23.1894 58.0456 18.8306C54.0719 15.2969 48.1731 13.09 42.24 12.4781C36.3069 11.8456 30.085 12.7806 25.465 15.4C19.745 18.645 15.675 24.4062 14.6438 30.3187C13.6675 35.9287 14.2175 41.7381 19.0644 46.2206C21.7525 48.7025 25.2244 50.5656 28.8819 51.755C30.2706 52.2087 33.8731 53.3019 37.7163 53.7075C41.5731 54.1131 45.6706 53.8312 47.1281 53.6731C50.9506 53.2675 54.7388 52.1744 57.8806 50.3112C63.5663 46.9287 65.3125 41.36 65.5256 35.6675Z" fill="#F79329"/>
<path d="M31.5013 33.4263C31.2675 35.6331 29.4869 37.2556 27.5275 37.0494C25.5681 36.8431 24.1588 34.8906 24.3925 32.6769C24.6263 30.4631 26.4069 28.8406 28.3663 29.0469C30.3256 29.26 31.7281 31.2125 31.5013 33.4263ZM48.0356 35.1656C47.8019 37.3725 49.2044 39.3319 51.1638 39.5381C53.1231 39.7444 54.9038 38.1219 55.1375 35.915C55.3713 33.7013 53.9688 31.7419 52.0094 31.5356C50.0431 31.3363 48.2694 32.9519 48.0356 35.1656ZM38.995 44.4744C38.9606 44.4744 38.9194 44.4744 38.885 44.4675C38.3006 44.4056 37.8744 43.8831 37.9363 43.2919L38.3488 39.3663C38.4106 38.7819 38.94 38.3831 39.5244 38.4175C40.1088 38.4794 40.535 39.0019 40.4731 39.5931L40.0606 43.5119C39.9988 44.0619 39.5381 44.4744 38.995 44.4744Z" fill="#2F2F2F"/>
<path d="M35.8806 47.0388C34.8013 47.0319 33.715 46.7019 32.9244 46.0969C32.2988 45.6156 31.3019 44.1581 32.3263 43.6013C32.4913 43.5119 32.6769 43.4638 32.8625 43.4431C33.1581 43.4019 33.3988 43.4775 33.6463 43.6631C34.045 43.9588 34.3819 44.4881 34.8769 44.5844C36.4238 44.9006 37.7575 44.11 38.1288 42.5563C38.225 42.1369 38.2594 41.9375 38.7544 41.8894C39.9575 41.7794 40.2463 43.2919 39.9163 44.1925C39.6206 44.9969 39.2356 45.8631 38.4863 46.3444C37.7163 46.8325 36.7881 47.0456 35.8806 47.0388Z" fill="#2F2F2F"/>
<path d="M41.5113 47.5475C42.5769 47.74 43.7044 47.6094 44.5981 47.1625C45.2994 46.7981 46.5506 45.5538 45.6431 44.8181C45.0725 44.3575 44.5706 44.5431 44.0138 44.9006C42.5975 45.815 40.6588 45.1688 40.1844 43.5188C40.0813 43.1406 40.2256 42.5425 40.0538 42.2056C39.9713 42.0475 39.8406 42.0819 39.6481 42.0131C39.5175 41.965 39.435 41.91 39.2906 41.9031C38.6238 41.8619 38.2388 42.5769 38.1356 43.1406C38.0806 43.4431 38.0188 43.6975 38.0669 44C38.2113 44.8525 38.4313 45.7669 39.0844 46.3788C39.7444 47.0113 40.6175 47.3825 41.5113 47.5475Z" fill="#2F2F2F"/>
<path d="M35.75 39.6206C35.7294 40.3562 36.1487 41.1675 36.8569 41.7175C37.4344 42.1644 38.2869 42.4531 39.1325 42.5356C39.9781 42.625 40.8719 42.5219 41.525 42.2125C42.3362 41.8206 42.9137 41.1194 43.0444 40.3906C43.175 39.7031 43.0856 38.9744 42.3775 38.4106C41.9925 38.0944 41.4906 37.8606 40.9612 37.7094C40.7687 37.6475 40.2462 37.5031 39.6962 37.4481C39.1394 37.3862 38.555 37.4137 38.3487 37.4344C37.8056 37.4756 37.2625 37.6062 36.8156 37.8262C36.0112 38.2319 35.7706 38.9125 35.75 39.6206Z" fill="#2F2F2F"/>
<path d="M67.1275 68.2344C67.9662 67.6775 68.8462 67.925 69.7812 68.035C73.81 68.5025 78.375 72.0363 78.54 76.2438C78.7394 81.6475 73.9337 85.5525 69.1487 86.8381C65.6631 87.7731 61.8887 87.7731 58.3 87.6288C56.7325 87.5669 53.9 87.8281 52.5181 86.9481C52.0231 86.6388 51.59 85.9925 51.3631 85.4631C50.5312 83.5313 52.2087 82.1838 54.0031 82.1906C55.3094 82.1975 56.6156 82.2181 57.9287 82.2044C60.7887 82.1838 63.6625 82.3969 66.4881 81.8331C69.0594 81.3244 72.8269 79.31 72.6687 76.175C72.5519 73.8719 69.9944 73.4181 68.1519 73.1431C67.6844 73.0744 67.2237 72.9231 66.6875 72.9094C65.6356 72.8819 65.6837 71.8919 65.7594 71.1219C65.8694 70.0288 66.0412 69.1144 66.9556 68.365C66.99 68.3238 67.0587 68.2756 67.1275 68.2344ZM16.3281 34.1825C16.2594 34.1825 16.1906 34.1756 16.1219 34.1619L10.4706 33.055C9.89312 32.945 9.51499 32.3813 9.63187 31.8038C9.74187 31.2263 10.3194 30.8413 10.8831 30.965L16.5344 32.0788C17.1119 32.1888 17.49 32.7525 17.3731 33.3231C17.27 33.825 16.8231 34.1825 16.3281 34.1825ZM10.5187 38.5138C9.98937 38.5138 9.53562 38.1219 9.46687 37.5856C9.38437 37.0013 9.79687 36.4719 10.3812 36.3894L16.0944 35.64C16.665 35.5575 17.2081 35.97 17.2906 36.5544C17.3662 37.1388 16.9537 37.675 16.3762 37.7506L10.6631 38.5C10.615 38.5138 10.5737 38.5138 10.5187 38.5138ZM12.2031 43.3263C11.7425 43.3263 11.3162 43.0238 11.1787 42.5494C11.0137 41.9856 11.3437 41.4013 11.9144 41.2363L17.4487 39.655C18.0125 39.4969 18.6037 39.82 18.7687 40.3906C18.9269 40.9544 18.6037 41.5456 18.0331 41.7038L12.4987 43.285C12.3956 43.3125 12.2994 43.3263 12.2031 43.3263ZM63.0506 38.3006C62.5144 38.3006 62.0537 37.895 61.9919 37.3519C61.961 37.0711 62.0429 36.7896 62.2195 36.5691C62.3961 36.3487 62.653 36.2074 62.9337 36.1763L68.6606 35.5369C69.2312 35.4888 69.7744 35.8944 69.8362 36.4788C69.905 37.07 69.4787 37.5925 68.8944 37.6544L63.1675 38.2938C63.1262 38.2938 63.085 38.3006 63.0506 38.3006ZM68.4681 43.1063C68.3925 43.1063 68.3169 43.0994 68.2344 43.0788L62.6106 41.8481C62.3358 41.7871 62.0963 41.6198 61.9443 41.3828C61.7923 41.1459 61.7402 40.8584 61.7994 40.5831C61.93 40.0125 62.4937 39.6481 63.0644 39.7719L68.695 41.0025C69.2656 41.1263 69.6369 41.6969 69.5062 42.2675C69.4031 42.7625 68.9562 43.1063 68.4681 43.1063ZM66.3987 47.7538C66.275 47.7538 66.1444 47.7331 66.0206 47.685L60.6375 45.65C60.0875 45.4438 59.8056 44.825 60.0187 44.275C60.225 43.725 60.8437 43.45 61.3937 43.6563L66.7837 45.6913C67.3337 45.9044 67.6087 46.5163 67.4025 47.0663C67.2375 47.4925 66.8319 47.7538 66.3987 47.7538Z" fill="#F79329"/>
<path d="M24.75 8.6075C24.2481 9.91375 23.2375 13.6744 23.87 16.3487C24.0556 17.1462 25.0731 17.5037 25.795 17.16C27.3006 16.4381 29.6519 15.1662 30.5319 14.7262C32.0306 13.9906 32.5463 13.0762 31.735 11.9556C30.7038 10.5256 28.1325 7.5625 26.6131 7.27375C25.7469 7.10875 25.08 7.76187 24.75 8.6075ZM60.225 12.2237C60.5069 13.5987 60.8644 17.4694 59.7919 20.0131C59.4756 20.7625 58.41 20.9481 57.7569 20.4875C56.3956 19.525 54.2988 17.875 53.4944 17.2975C52.1469 16.3212 51.7825 15.3312 52.7725 14.3619C54.0238 13.1244 57.0556 10.6287 58.6025 10.6012C59.4894 10.5806 60.0463 11.3369 60.225 12.2237Z" fill="#FCD4B5"/>
<path d="M57.6933 54.3883H28.9312C27.9604 54.3883 27.1734 55.1753 27.1734 56.1461V72.5878C27.1734 73.5586 27.9604 74.3456 28.9312 74.3456H57.6933C58.6641 74.3456 59.451 73.5586 59.451 72.5878V56.1461C59.451 55.1753 58.6641 54.3883 57.6933 54.3883Z" fill="#D0CFCE"/>
<path d="M44.7779 49.4651H41.7414C41.298 49.4651 40.9386 49.8246 40.9386 50.2679V56.7437C40.9386 57.1871 41.298 57.5465 41.7414 57.5465H44.7779C45.2213 57.5465 45.5807 57.1871 45.5807 56.7437V50.2679C45.5807 49.8246 45.2213 49.4651 44.7779 49.4651Z" fill="#9B9B9A"/>
<path d="M33.7234 59.8039H53.164C53.5533 59.8038 53.9387 59.8804 54.2983 60.0294C54.6579 60.1783 54.9847 60.3966 55.2599 60.6718C55.5351 60.9471 55.7535 61.2738 55.9024 61.6334C56.0513 61.993 56.1279 62.3785 56.1278 62.7677V70.1432C56.1279 70.3409 56.089 70.5366 56.0134 70.7193C55.9378 70.9019 55.8269 71.0679 55.6872 71.2076C55.5474 71.3474 55.3814 71.4583 55.1988 71.5339C55.0162 71.6095 54.8204 71.6484 54.6227 71.6483H31.3412C31.1436 71.6483 30.9479 71.6094 30.7653 71.5337C30.5828 71.4581 30.4169 71.3472 30.2771 71.2074C30.1374 71.0677 30.0266 70.9018 29.951 70.7191C29.8754 70.5365 29.8366 70.3408 29.8366 70.1432V63.6917C29.8368 62.6609 30.2463 61.6724 30.9752 60.9435C31.7041 60.2146 32.6926 59.8051 33.7234 59.8049V59.8039Z" fill="#9B9B9A"/>
<path d="M53.9117 60.1736H32.1709C31.3399 60.1736 30.6663 60.8472 30.6663 61.6782V68.8428C30.6663 69.6738 31.3399 70.3474 32.1709 70.3474H53.9117C54.7426 70.3474 55.4163 69.6738 55.4163 68.8428V61.6782C55.4163 60.8472 54.7426 60.1736 53.9117 60.1736Z" fill="white"/>
<path d="M45.6338 54.6461H57.6933C58.1596 54.6461 58.6068 54.8313 58.9366 55.1611C59.2663 55.4908 59.4516 55.938 59.4516 56.4044V72.8456C59.4516 73.3119 59.2663 73.7591 58.9366 74.0889C58.6068 74.4186 58.1596 74.6039 57.6933 74.6039H28.9317C28.4654 74.6039 28.0182 74.4186 27.6884 74.0889C27.3587 73.7591 27.1734 73.3119 27.1734 72.8456V56.4044C27.1734 55.938 27.3587 55.4908 27.6884 55.1611C28.0182 54.8313 28.4654 54.6461 28.9317 54.6461H40.9386" stroke="black" stroke-width="2" stroke-linecap="round" stroke-linejoin="round"/>
<path d="M53.9117 60.1736H32.1709C31.3399 60.1736 30.6663 60.8472 30.6663 61.6782V68.8428C30.6663 69.6738 31.3399 70.3474 32.1709 70.3474H53.9117C54.7426 70.3474 55.4163 69.6738 55.4163 68.8428V61.6782C55.4163 60.8472 54.7426 60.1736 53.9117 60.1736Z" stroke="black" stroke-width="2" stroke-linecap="round" stroke-linejoin="round"/>
<path d="M51.7667 63.6664H49.7042V67.2758H51.7667M49.7042 65.4711H51.2511M42.4854 67.2758L40.9386 63.6664L39.3917 67.2758M39.9073 66.4116H41.9698M34.7511 67.2758V63.6664L37.3292 67.2758V63.6664M47.6417 67.2758V63.6664L46.0948 66.7602L44.5479 63.6664V67.2758" stroke="black" stroke-width="2" stroke-linecap="round" stroke-linejoin="round"/>
<path d="M44.831 49.2784H41.7945C41.3511 49.2784 40.9917 49.6379 40.9917 50.0813V56.557C40.9917 57.0004 41.3511 57.3598 41.7945 57.3598H44.831C45.2744 57.3598 45.6338 57.0004 45.6338 56.557V50.0813C45.6338 49.6379 45.2744 49.2784 44.831 49.2784Z" stroke="black" stroke-width="2" stroke-miterlimit="10"/>
</g>
<defs>
<filter id="filter0_d_19_892" x="1.2514" y="1" width="98.4972" height="88.4058" filterUnits="userSpaceOnUse" color-interpolation-filters="sRGB">
<feFlood flood-opacity="0" result="BackgroundImageFix"/>
<feColorMatrix in="SourceAlpha" type="matrix" values="0 0 0 0 0 0 0 0 0 0 0 0 0 0 0 0 0 0 127 0" result="hardAlpha"/>
<feOffset dx="8" dy="4"/>
<feGaussianBlur stdDeviation="1.5"/>
<feComposite in2="hardAlpha" operator="out"/>
<feColorMatrix type="matrix" values="0 0 0 0 0 0 0 0 0 0 0 0 0 0 0 0 0 0 0.25 0"/>
<feBlend mode="normal" in2="BackgroundImageFix" result="effect1_dropShadow_19_892"/>
<feBlend mode="normal" in="SourceGraphic" in2="effect1_dropShadow_19_892" result="shape"/>
</filter>
<clipPath id="clip0_19_892">
<rect width="88" height="88" fill="white"/>
</clipPath>
</defs>
</svg>
